# This file uses centimeters as units for non-parametric coordinates.

mtllib bolt3LP.mtl
g Lowpolys:default1
v -5.063707 -0.351752 -6.393378
v -4.807162 -0.354504 -6.390044
v -4.806086 -0.159964 -6.273996
v -5.062631 -0.157259 -6.277357
v -5.062621 -0.238932 -6.499835
v -5.061962 -0.119732 -6.428729
v -5.145611 -0.266723 -6.458608
v -5.144922 -0.142128 -6.384285
v -5.140473 0.092983 -7.061619
v -5.141914 -0.102363 -7.083465
v -5.144162 -0.307647 -6.973690
v -5.060934 -0.121688 -6.699222
v -5.059924 -0.051277 -6.818010
v -5.218268 -0.049418 -6.820294
v -5.058712 -0.106748 -7.191123
v -5.057093 0.111848 -7.166932
v -5.061481 -0.365751 -7.053045
v -4.800497 0.112965 -7.169475
v -4.802108 -0.105042 -7.194945
v -4.804697 -0.366348 -7.053460
v -5.145846 -0.378327 -6.624218
v -5.145188 -0.379660 -6.853529
v -5.219604 -0.121184 -6.699989
v -5.063874 -0.469723 -6.589491
v -5.063056 -0.473473 -6.863240
v -4.807318 -0.471443 -6.587490
v -4.806287 -0.475164 -6.861884
v -5.061017 -0.250149 -6.938685
v -5.062042 -0.321911 -6.818375
v -5.139785 0.217549 -6.987314
v -5.056026 0.304904 -7.051770
v -5.058236 0.067354 -7.014812
v -5.139525 0.329585 -6.825798
v -5.140632 0.330535 -6.593000
v -5.059247 0.071070 -6.745028
v -5.060261 0.000005 -6.626629
v -5.217588 0.073483 -6.746981
v -5.055767 0.425719 -6.873494
v -5.057049 0.430031 -6.586021
v -4.799164 0.427186 -6.877459
v -4.799432 0.305532 -7.054605
v -4.800263 0.429604 -6.586349
v -5.143441 0.056622 -6.364761
v -5.141655 0.259023 -6.472540
v -5.218924 0.001735 -6.626665
v -5.060895 0.068816 -6.268241
v -5.058754 0.308349 -6.391230
v -4.804341 0.066792 -6.266420
v -4.801983 0.306873 -6.389745
v -5.059155 0.199971 -6.507059
v -5.058129 0.271734 -6.627370
v -5.057570 0.187868 -6.942923
v -4.800992 0.079405 -6.988601
v -4.802371 -0.074723 -7.016764
v -4.804585 -0.247422 -6.908581
v -4.806416 -0.301712 -6.640448
v -4.806150 -0.208666 -6.506048
v -4.805411 -0.293594 -6.831438
v -4.805610 -0.130742 -6.459564
v -4.800084 0.254986 -6.820085
v -4.800454 0.156975 -6.942328
v -4.801193 0.241852 -6.616717
v -4.804104 0.031723 -6.441546
v -4.802018 0.195909 -6.539437
v -3.961789 -0.136790 -6.456590
v -3.960283 0.025674 -6.438569
v -3.959736 0.003808 -6.578629
v -3.958197 0.189858 -6.536461
v -3.958242 0.108218 -6.753805
v -3.957373 0.235805 -6.613742
v -3.956264 0.248943 -6.817112
v -3.956634 0.150929 -6.939353
v -3.962329 -0.214712 -6.503073
v -3.960717 -0.173699 -6.684517
v -3.959223 -0.069174 -6.859624
v -3.957171 0.073357 -6.985626
v -3.961590 -0.299638 -6.828458
v -3.962595 -0.307756 -6.637470
v -3.960765 -0.253468 -6.905604
v -3.958550 -0.080770 -7.013792
v -3.997139 -0.214462 -6.503196
v -3.997405 -0.307507 -6.637593
v -3.996399 -0.299389 -6.828581
v -3.995574 -0.253219 -6.905727
v -3.993359 -0.080520 -7.013914
v -3.991980 0.073606 -6.985749
v -3.991443 0.151178 -6.939476
v -3.991073 0.249192 -6.817235
v -3.992182 0.236054 -6.613865
v -3.993006 0.190108 -6.536583
v -3.995092 0.025923 -6.438692
v -3.996598 -0.136540 -6.456712
vt 0.407200 0.672733
vt 0.494724 0.672843
vt 0.495091 0.749792
vt 0.407574 0.750290
vt 0.554016 0.788816
vt 0.590325 0.761238
vt 0.657138 0.811836
vt 0.599590 0.859112
vt 0.528053 0.763721
vt 0.570972 0.732430
vt 0.753400 0.102877
vt 0.720570 0.069950
vt 0.794749 0.036501
vt 0.796939 0.083186
vt 0.785377 0.318277
vt 0.720885 0.273909
vt 0.814725 0.228862
vt 0.851369 0.319792
vt 0.650658 0.910448
vt 0.577111 0.957701
vt 0.545055 0.924484
vt 0.776345 0.364623
vt 0.855385 0.366458
vt 0.690117 0.305842
vt 0.649674 0.957607
vt 0.576543 0.985220
vt 0.408957 0.325975
vt 0.409388 0.250710
vt 0.496912 0.250599
vt 0.496484 0.325211
vt 0.407839 0.426276
vt 0.495434 0.426359
vt 0.702163 0.232148
vt 0.711195 0.155207
vt 0.798064 0.190490
vt 0.671247 0.136129
vt 0.658996 0.233237
vt 0.514952 0.926956
vt 0.544631 0.856196
vt 0.407085 0.594397
vt 0.494583 0.594833
vt 0.407353 0.500863
vt 0.494941 0.501417
vt 0.547577 0.985523
vt 0.512224 0.948240
vt 0.895164 0.300473
vt 0.928904 0.333495
vt 0.526175 0.786900
vt 0.717610 0.960902
vt 0.713851 0.984814
vt 0.946236 0.172163
vt 0.937336 0.249885
vt 0.851112 0.213321
vt 0.708740 0.862555
vt 0.729084 0.765070
vt 0.763532 0.795782
vt 0.978086 0.273609
vt 0.991037 0.172207
vt 0.794354 0.793279
vt 0.763986 0.865832
vt 0.409939 0.100167
vt 0.497474 0.101218
vt 0.497285 0.174320
vt 0.409758 0.173827
vt 0.409351 0.001992
vt 0.496941 0.002025
vt 0.863732 0.086140
vt 0.926991 0.130388
vt 0.832603 0.174279
vt 0.875889 0.043602
vt 0.955664 0.097402
vt 0.658770 0.765221
vt 0.730246 0.738360
vt 0.408091 0.827681
vt 0.495595 0.826963
vt 0.496405 0.918945
vt 0.408816 0.919603
vt 0.497005 0.998008
vt 0.409407 0.997957
vt 0.753215 0.735416
vt 0.793072 0.768526
vt 0.754403 0.932817
vt 0.780494 0.958462
vt 0.737570 0.989918
vt 0.594592 0.737716
vt 0.782656 0.935232
vt 0.852645 0.745875
vt 0.778822 0.733405
vt 0.793402 0.672374
vt 0.845418 0.684649
vt 0.944126 0.702223
vt 0.906135 0.650800
vt 0.951640 0.476021
vt 0.988039 0.545317
vt 0.929298 0.560403
vt 0.899940 0.513001
vt 0.984530 0.638855
vt 0.923207 0.625324
vt 0.887388 0.433104
vt 0.874204 0.495810
vt 0.715221 0.690923
vt 0.676862 0.628461
vt 0.736522 0.611913
vt 0.767782 0.655261
vt 0.681106 0.529251
vt 0.744537 0.542863
vt 0.810272 0.426578
vt 0.819171 0.486845
vt 0.726339 0.464412
vt 0.761534 0.517337
vt 0.863414 0.764403
vt 0.919082 0.767571
vt 0.873420 0.811710
vt 0.809277 0.800748
vt 0.841056 0.873285
vt 0.795038 0.827911
vt 0.794277 0.897421
vt 0.829896 0.937266
vt 0.946473 0.781979
vt 0.935816 0.844531
vt 0.903412 0.906085
vt 0.857164 0.951609
vt 0.980620 0.826055
vt 0.981344 0.891256
vt 0.967026 0.918377
vt 0.910177 0.958384
vt 0.376296 0.684725
vt 0.375951 0.612338
vt 0.391410 0.612305
vt 0.391754 0.684674
vt 0.376823 0.769489
vt 0.392281 0.769428
vt 0.377073 0.809396
vt 0.392531 0.809332
vt 0.377571 0.105425
vt 0.377517 0.014799
vt 0.392975 0.014806
vt 0.393030 0.105442
vt 0.377409 0.175162
vt 0.392867 0.175193
vt 0.391303 0.572168
vt 0.375845 0.572188
vt 0.375817 0.499879
vt 0.391275 0.499885
vt 0.377243 0.215351
vt 0.392702 0.215390
vt 0.376099 0.415272
vt 0.391557 0.415303
vt 0.376311 0.375436
vt 0.391770 0.375475
vt 0.376867 0.285001
vt 0.392326 0.285046
vt 0.016574 0.572642
vt 0.016544 0.499741
vt 0.016827 0.414539
vt 0.017040 0.374515
vt 0.017596 0.283951
vt 0.017970 0.214452
vt 0.018134 0.174426
vt 0.018295 0.105015
vt 0.018239 0.014645
vt 0.017804 0.810870
vt 0.017554 0.770924
vt 0.017026 0.685903
vt 0.016680 0.613091
vn -0.015177 -0.708431 0.705617
vn -0.015188 -0.707459 0.706591
vn -0.013977 -0.283263 0.958940
vn -0.013977 -0.283269 0.958939
vn -0.667769 0.718918 0.192981
vn -0.674551 -0.505873 -0.537656
vn -0.877623 -0.099249 -0.468965
vn -0.874495 0.466953 -0.131199
vn -0.513401 0.441719 -0.735733
vn -0.513401 0.441719 -0.735733
vn -0.882390 -0.366266 0.295359
vn -0.783343 -0.447057 0.431873
vn -0.783055 -0.158262 0.601480
vn -0.881415 -0.079026 0.465685
vn -0.902772 -0.092271 -0.420105
vn -0.862552 -0.289694 -0.414828
vn -0.961842 -0.050174 -0.268964
vn -0.881637 0.097256 -0.461798
vn -0.881584 0.109594 0.459129
vn -0.653127 -0.223119 0.723631
vn -0.639687 0.538491 -0.548477
vn -0.788678 -0.114025 -0.604140
vn -0.786213 0.184132 -0.589885
vn -0.762285 -0.407604 -0.502773
vn -0.013964 0.216724 0.976133
vn -0.013438 -0.515766 0.856624
vn -0.009490 -0.236833 -0.971504
vn -0.012106 0.321183 -0.946940
vn -0.012096 0.322997 -0.946323
vn -0.009568 -0.230360 -0.973059
vn -0.005037 -0.668770 -0.743452
vn -0.005052 -0.666734 -0.745279
vn -0.862024 -0.502543 -0.066066
vn -0.904043 -0.412755 0.111085
vn -0.964165 -0.255350 0.071989
vn -0.775574 -0.607232 0.172494
vn -0.753319 -0.644964 -0.128578
vn 0.006470 0.511764 -0.859102
vn -0.002767 0.961224 -0.275756
vn -0.009825 -0.968590 0.248471
vn -0.009841 -0.968239 0.249832
vn -0.005239 -0.975542 -0.219749
vn -0.005242 -0.975634 -0.219343
vn -0.630028 0.668881 0.394543
vn -0.630028 0.668881 0.394543
vn -0.881017 0.365580 -0.300266
vn -0.786852 0.438980 -0.433775
vn -0.010941 0.858091 0.513381
vn -0.669682 0.518033 0.532135
vn -0.006059 0.859552 0.511013
vn -0.858706 0.508162 0.066302
vn -0.901082 0.418465 -0.113750
vn -0.960083 0.268343 -0.078955
vn -0.884668 -0.448872 0.126003
vn -0.641376 0.232015 -0.731304
vn -0.654796 -0.525409 0.543312
vn -0.788048 0.588163 -0.181781
vn -0.759109 0.640070 0.118590
vn -0.013403 -0.508621 0.860886
vn -0.020466 -0.961760 0.273127
vn -0.006053 0.966872 -0.255189
vn -0.006133 0.965525 -0.260238
vn -0.011047 0.681554 -0.731685
vn -0.011047 0.682101 -0.731175
vn -0.002123 0.999930 -0.011640
vn -0.002123 0.999930 -0.011640
vn -0.901971 0.105030 0.418828
vn -0.857603 0.307182 0.412499
vn -0.962391 0.065823 0.263574
vn -0.773866 0.141932 0.617241
vn -0.748837 0.422770 0.510401
vn -0.009265 -0.213968 -0.976797
vn 0.006480 0.512761 -0.858507
vn -0.006386 0.239392 0.970902
vn -0.006391 0.239095 0.970975
vn -0.000528 0.661034 0.750356
vn -0.000528 0.661025 0.750363
vn 0.001949 0.848192 0.529685
vn 0.001949 0.848192 0.529685
vn -0.637408 -0.659761 -0.398028
vn -0.637408 -0.659761 -0.398028
vn -0.676454 -0.708878 -0.199753
vn -0.544126 -0.427597 0.721865
vn -0.544126 -0.427597 0.721865
vn -0.020441 -0.859278 -0.511101
vn -0.015531 -0.857936 -0.513522
vn 0.999959 -0.008441 0.003369
vn 0.999970 -0.007636 0.001660
vn 0.999971 -0.007458 0.001563
vn 0.999959 -0.008443 0.003401
vn 0.999959 -0.007786 0.004720
vn 0.999959 -0.007657 0.004774
vn 0.999983 -0.005659 0.001593
vn 0.999983 -0.004905 0.003190
vn 0.999983 -0.004901 0.003229
vn 0.999982 -0.005787 0.001526
vn 0.999975 -0.005373 0.004689
vn 0.999974 -0.005475 0.004752
vn 0.999969 -0.007746 0.001718
vn 0.999970 -0.007566 0.001623
vn 0.999983 -0.005721 0.001441
vn 0.999983 -0.004973 0.003189
vn 0.999982 -0.004969 0.003217
vn 0.999982 -0.005891 0.001372
vn 0.999975 -0.005379 0.004694
vn 0.999973 -0.005508 0.004770
vn 0.999958 -0.008523 0.003359
vn 0.999958 -0.008523 0.003389
vn 0.999958 -0.007773 0.004781
vn 0.999959 -0.007608 0.004848
vn 0.999939 -0.009672 0.005415
vn 0.999935 -0.009691 0.006030
vn 0.999949 -0.009017 0.004651
vn 0.999945 -0.009667 0.003951
vn 0.999943 -0.009595 0.004600
vn 0.999940 -0.010250 0.003976
vn 0.999918 -0.011663 0.005310
vn 0.999931 -0.010225 0.005824
vn 0.999928 -0.010381 0.006033
vn 0.999942 -0.009733 0.004637
vn 0.999949 -0.009061 0.004520
vn 0.999937 -0.009625 0.005756
vn 0.999912 -0.012099 0.005429
vn 0.999938 -0.010425 0.003883
vn 0.999945 -0.009800 0.003845
vn 0.999940 -0.009747 0.005099
vn -0.001719 0.238052 0.971251
vn -0.005262 -0.258888 0.965893
vn -0.005263 -0.258877 0.965896
vn -0.001720 0.238101 0.971239
vn 0.001884 0.640571 0.767897
vn 0.001883 0.640597 0.767875
vn 0.004359 0.859538 0.511053
vn 0.004355 0.859528 0.511070
vn 0.007821 0.967616 -0.252305
vn 0.006921 0.997894 0.064494
vn 0.006911 0.997894 0.064503
vn 0.007816 0.967615 -0.252310
vn 0.007504 0.692474 -0.721404
vn 0.007508 0.692474 -0.721404
vn -0.007627 -0.726616 0.687001
vn -0.007628 -0.726622 0.686995
vn -0.007821 -0.967584 0.252427
vn -0.007816 -0.967585 0.252424
vn 0.005549 0.306009 -0.952012
vn 0.005534 0.306033 -0.952005
vn -0.006319 -0.980035 -0.198725
vn -0.006310 -0.980032 -0.198741
vn -0.001936 -0.645951 -0.763377
vn -0.001925 -0.645939 -0.763387
vn 0.001725 -0.237263 -0.971444
vn 0.001721 -0.237216 -0.971455
vn -0.007629 -0.726793 0.686814
vn -0.007822 -0.967534 0.252620
vn -0.006322 -0.980138 -0.198215
vn -0.001942 -0.646459 -0.762946
vn 0.001715 -0.238460 -0.971151
vn 0.005547 0.305622 -0.952137
vn 0.007503 0.692310 -0.721561
vn 0.007821 0.967665 -0.252117
vn 0.006922 0.997894 0.064494
vn 0.004360 0.859538 0.511052
vn 0.001878 0.640015 0.768360
vn -0.001728 0.236979 0.971513
vn -0.005264 -0.259366 0.965765
s 1
g Lowpolys:polySurface221 Lowpolys:scraps_lowP polySurface3 Lowpolys:polySurface1
usemtl Lowpolys:lambert2SG
f 1/1/1 2/2/2 3/3/3 4/4/4
s 2
f 5/5/5 6/6/6 36/7/7 12/8/8
f 7/9/9 8/10/10 6/6/6 5/5/5
s 3
f 7/11/11 1/12/12 4/13/13 8/14/14
f 10/15/15 11/16/16 14/17/17 9/18/18
s 2
f 12/8/8 13/19/19 28/20/20 29/21/21
s 3
f 15/22/22 10/15/15 9/18/18 16/23/23
f 15/22/22 17/24/24 11/16/16 10/15/15
s 2
f 13/19/19 14/25/25 11/26/26 28/20/20
s 1
f 15/27/27 16/28/28 18/29/29 19/30/30
f 17/31/31 15/27/27 19/30/30 20/32/32
s 3
f 22/33/33 21/34/34 7/11/11 23/35/35
f 24/36/36 1/12/12 7/11/11 21/34/34
f 24/36/36 21/34/34 22/33/33 25/37/37
s 2
f 22/38/38 23/39/39 12/8/8 29/21/21
s 1
f 24/40/40 26/41/41 2/2/2 1/1/1
f 26/41/41 24/40/40 25/42/42 27/43/43
f 25/42/42 17/31/31 20/32/32 27/43/43
s 3
f 22/33/33 11/16/16 17/24/24 25/37/37
s 2
f 28/20/20 11/44/44 22/45/45 29/21/21
s 3
f 16/23/23 9/18/18 30/46/46 31/47/47
s 2
f 5/5/5 12/8/8 23/39/39 7/48/48
f 32/49/49 9/50/50 14/25/25 13/19/19
s 3
f 34/51/51 33/52/52 30/46/46 37/53/53
s 2
f 35/54/54 36/7/7 50/55/55 51/56/56
s 3
f 38/57/57 31/47/47 30/46/46 33/52/52
f 38/57/57 33/52/52 34/51/51 39/58/58
s 2
f 34/59/59 37/60/60 35/54/54 51/56/56
s 1
f 38/61/61 40/62/62 41/63/63 31/64/64
f 39/65/65 42/66/66 40/62/62 38/61/61
s 3
f 43/67/67 44/68/68 45/69/69 8/14/14
f 46/70/70 43/67/67 8/14/14 4/13/13
f 46/70/70 47/71/71 44/68/68 43/67/67
s 2
f 36/7/7 45/72/72 44/73/73 50/55/55
s 1
f 46/74/74 4/4/4 3/3/3 48/75/75
f 48/75/75 49/76/76 47/77/77 46/74/74
f 47/77/77 49/76/76 42/78/78 39/79/79
s 3
f 44/68/68 47/71/71 39/58/58 34/51/51
s 2
f 51/56/56 50/55/55 44/80/80 34/81/81
s 1
f 18/29/29 16/28/28 31/64/64 41/63/63
s 2
f 52/82/82 32/49/49 13/19/19 35/54/54
f 30/83/83 9/84/84 32/49/49 52/82/82
f 36/7/7 35/54/54 13/19/19 12/8/8
f 8/85/85 45/72/72 36/7/7 6/6/6
f 37/60/60 30/86/86 52/82/82 35/54/54
s 10
f 19/87/87 18/88/88 53/89/89 54/90/90
f 20/91/91 19/87/87 54/90/90 55/92/92
f 2/93/93 26/94/94 56/95/95 57/96/96
f 26/94/94 27/97/97 58/98/98 56/95/95
f 27/97/97 20/91/91 55/92/92 58/98/98
f 3/99/99 2/93/93 57/96/96 59/100/100
f 41/101/101 40/102/102 60/103/103 61/104/104
f 40/102/102 42/105/105 62/106/106 60/103/103
f 48/107/107 3/99/99 59/100/100 63/108/108
f 49/109/109 48/107/107 63/108/108 64/110/110
f 42/105/105 49/109/109 64/110/110 62/106/106
f 18/88/88 41/101/101 61/104/104 53/89/89
s 13
f 66/111/111 65/112/112 67/113/113 68/114/114
f 68/114/114 67/113/113 69/115/115 70/116/116
f 71/117/117 70/116/116 69/115/115 72/118/118
f 65/112/112 73/119/119 74/120/120 67/113/113
f 74/120/120 75/121/121 69/115/115 67/113/113
f 75/121/121 76/122/122 72/118/118 69/115/115
f 78/123/123 77/124/124 74/120/120 73/119/119
f 77/124/124 79/125/125 75/121/121 74/120/120
f 75/121/121 79/125/125 80/126/126 76/122/122
s 14
f 91/127/127 92/128/128 65/129/129 66/130/130
f 90/131/131 91/127/127 66/130/130 68/132/132
f 89/133/133 90/131/131 68/132/132 70/134/134
f 88/135/135 89/136/136 70/137/137 71/138/138
f 87/139/139 88/135/135 71/138/138 72/140/140
f 73/141/141 81/142/142 82/143/143 78/144/144
f 86/145/145 87/139/139 72/140/140 76/146/146
f 82/143/143 83/147/147 77/148/148 78/144/144
f 83/147/147 84/149/149 79/150/150 77/148/148
f 84/149/149 85/151/151 80/152/152 79/150/150
f 85/151/151 86/145/145 76/146/146 80/152/152
f 73/141/141 65/129/129 92/128/128 81/142/142
f 81/142/142 57/153/153 56/154/154 82/143/143
f 56/154/154 58/155/155 83/147/147 82/143/143
f 58/155/155 55/156/156 84/149/149 83/147/147
f 55/156/156 54/157/157 85/151/151 84/149/149
f 54/157/157 53/158/158 86/145/145 85/151/151
f 53/158/158 61/159/159 87/139/139 86/145/145
f 61/159/159 60/160/160 88/135/135 87/139/139
f 60/160/160 62/161/161 89/136/136 88/135/135
f 62/162/162 64/163/163 90/131/131 89/133/133
f 64/163/163 63/164/164 91/127/127 90/131/131
f 63/164/164 59/165/165 92/128/128 91/127/127
f 81/142/142 92/128/128 59/165/165 57/153/153
