# This file uses centimeters as units for non-parametric coordinates.

mtllib Teleport_Lowp.mtl
g default
v 2.017913 -2.774490 6.961363
v -0.788398 -3.415013 6.961363
v -3.038885 -1.620310 6.961363
v -3.038885 1.258171 6.961363
v -0.788398 3.052874 6.961364
v 2.017912 2.412352 6.961363
v 3.266838 -0.181069 6.961363
v 3.542031 -4.441486 -3.722797
v -1.264079 -5.538450 -3.722797
v -5.118280 -2.464828 -3.722797
v -5.118281 2.464881 -3.722797
v -1.264080 5.538504 -3.722797
v 3.542030 4.441540 -3.722797
v 5.680951 0.000027 -3.722797
v -0.050272 -0.181069 6.961363
v 3.542030 4.441540 -2.627713
v -1.264080 5.538504 -2.627713
v -5.118281 2.464881 -2.627713
v -5.118280 -2.464828 -2.627713
v -1.264079 -5.538450 -2.627713
v 3.542031 -4.441486 -2.627713
v 5.680951 0.000027 -2.627713
v 3.542030 4.441540 -1.063980
v -1.264080 5.538504 -1.063980
v -5.118281 2.464881 -1.063980
v -5.118280 -2.464828 -1.063980
v -1.264079 -5.538450 -1.063980
v 3.542031 -4.441486 -1.063980
v 5.680951 0.000027 -1.063980
v 3.542030 4.441540 5.568974
v -1.264080 5.538503 5.568974
v -5.118281 2.464881 5.568974
v -5.118280 -2.464828 5.568974
v -1.264079 -5.538450 5.568974
v 3.542031 -4.441486 5.568974
v 5.680950 0.000027 5.568974
v 3.542030 4.441540 4.051300
v -1.264080 5.538503 4.051300
v -5.118281 2.464881 4.051300
v -5.119034 -2.468862 4.009462
v -1.265555 -5.532253 4.018243
v 3.542031 -4.441486 4.051300
v 5.680950 0.000027 4.051300
v 3.542030 4.441540 3.124145
v -1.264080 5.538503 3.124145
v -5.118281 2.464881 3.124145
v -5.118280 -2.464827 3.124145
v -1.264079 -5.538450 3.124145
v 3.542031 -4.441486 3.124145
v 5.680950 0.000027 3.124145
v 3.542030 4.441540 0.319136
v -1.264080 5.538504 0.319136
v -5.118281 2.464881 0.319136
v -5.118280 -2.464827 0.319136
v -1.264079 -5.538450 0.319136
v 3.542031 -4.441486 0.319136
v 5.680951 0.000027 0.319136
v 2.673064 3.246647 3.105298
v -0.835579 4.061387 3.091618
v 2.679167 3.225832 0.300373
v -0.829476 4.040572 0.286693
v -3.660231 1.826260 3.102059
v -3.654128 1.805445 0.297134
v -3.673872 -1.775637 3.128758
v -3.667769 -1.796452 0.323833
v -0.866229 -4.032002 3.151611
v -0.860127 -4.052818 0.346686
v 2.648485 -3.243747 3.153409
v 2.654587 -3.264562 0.348484
v 4.223618 -0.004443 3.132797
v 4.229721 -0.025258 0.327872
v 4.098708 5.139592 -1.063980
v -1.462756 6.408961 -1.063980
v 4.098708 5.139592 -2.627713
v -1.462756 6.408961 -2.627713
v -5.922704 2.869807 -1.033158
v -5.922704 2.869807 -2.658536
v -5.922702 -3.113476 -1.033158
v -5.922702 -3.113476 -2.658536
v -1.462755 -6.408907 -1.063980
v -1.462755 -6.408907 -2.627713
v 4.098709 -5.139538 -1.063980
v 4.098709 -5.139538 -2.627713
v 6.573792 0.000027 -1.063980
v 6.573792 0.000027 -2.627713
v 4.098708 5.139592 5.568974
v -1.462756 6.408960 5.568974
v 4.098708 5.139592 4.051300
v -1.462756 6.408960 4.051300
v -5.922704 2.869807 5.600972
v -5.922704 2.869807 4.019302
v -5.922703 -3.113477 5.600972
v -5.950890 -3.133570 3.992600
v -1.462755 -6.408906 5.568974
v -1.452210 -6.412940 4.014564
v 4.098710 -5.139538 5.568974
v 4.098710 -5.139538 4.051300
v 6.573792 0.000027 5.568974
v 6.573792 0.000027 4.051300
v 1.301617 -1.622436 -7.299732
v -0.454032 -2.023152 -7.299732
v 0.007745 0.000026 -7.299731
v -1.861955 -0.900374 -7.299731
v -1.861955 0.900423 -7.299731
v -0.454032 2.023206 -7.299731
v 1.301617 1.622490 -7.299732
v 2.082953 0.000026 -7.299731
v 2.342312 2.929258 -5.235124
v -0.827375 3.652718 -5.235124
v -3.369268 1.625626 -5.235124
v -3.369268 -1.625574 -5.235124
v -0.827375 -3.652665 -5.235124
v 2.342312 -2.929204 -5.235124
v 3.752955 0.000027 -5.235124
vt 0.395594 0.155712
vt 0.324696 0.139572
vt 0.305720 0.791049
vt 0.170428 0.790214
vt 0.267781 0.185003
vt 0.438756 0.789912
vt 0.267458 0.258010
vt 0.567347 0.791419
vt 0.324563 0.303810
vt 0.700970 0.791117
vt 0.395846 0.287480
vt 0.836557 0.790196
vt 0.427518 0.221415
vt 0.024996 0.787957
vt 0.343454 0.221572
vt 0.772698 0.240386
vt 0.738541 0.247916
vt 0.747511 0.210242
vt 0.711156 0.226942
vt 0.711147 0.193543
vt 0.738548 0.172567
vt 0.772694 0.180093
vt 0.787826 0.210247
vt 0.697554 0.977712
vt 0.833671 0.978869
vt 0.853573 0.082799
vt 0.709374 0.051331
vt 0.565484 0.977321
vt 0.593785 0.139546
vt 0.437595 0.978783
vt 0.593783 0.280938
vt 0.306574 0.977755
vt 0.709376 0.369154
vt 0.170692 0.978873
vt 0.853570 0.337682
vt 0.980723 0.981200
vt 0.917800 0.210245
vt 0.697260 0.920568
vt 0.832628 0.920568
vt 0.833369 0.957387
vt 0.697429 0.957387
vt 0.565705 0.920568
vt 0.565642 0.957387
vt 0.431321 0.920568
vt 0.431423 0.957387
vt 0.307302 0.920568
vt 0.307243 0.957387
vt 0.171708 0.920568
vt 0.171023 0.957387
vt 0.991369 0.920568
vt 0.992659 0.957387
vt 0.700937 0.811518
vt 0.836292 0.811518
vt 0.836335 0.850800
vt 0.700966 0.850800
vt 0.567451 0.811518
vt 0.567513 0.850800
vt 0.432611 0.811518
vt 0.432517 0.850800
vt 0.306270 0.811518
vt 0.306027 0.850800
vt 0.170717 0.811518
vt 0.170712 0.850800
vt 0.993724 0.811518
vt 0.993728 0.850800
vt 0.701028 0.871200
vt 0.836601 0.872101
vt 0.422537 0.502608
vt 0.289690 0.475557
vt 0.567463 0.870931
vt 0.182368 0.550212
vt 0.438716 0.872984
vt 0.181143 0.671160
vt 0.305765 0.871468
vt 0.289141 0.746844
vt 0.170399 0.872101
vt 0.422535 0.719462
vt 0.981945 0.874343
vt 0.481468 0.610990
vt 0.106865 0.542230
vt 0.400294 0.534559
vt 0.034359 0.636004
vt 0.720245 0.677333
vt 0.107136 0.448856
vt 0.641011 0.631243
vt 0.107830 0.355344
vt 0.640796 0.555745
vt 0.108423 0.261673
vt 0.719447 0.509289
vt 0.108470 0.167909
vt 0.816621 0.526327
vt 0.107935 0.729109
vt 0.859613 0.592972
vt 0.710147 0.722611
vt 0.836916 0.696067
vt 0.832930 0.899163
vt 0.697365 0.900298
vt 0.607127 0.651241
vt 0.565539 0.900652
vt 0.607311 0.535600
vt 0.437499 0.899193
vt 0.710191 0.464510
vt 0.306660 0.900262
vt 0.836788 0.491033
vt 0.171376 0.899164
vt 0.892696 0.593444
vt 0.024622 0.896806
vt 0.725193 0.303620
vt 0.809927 0.285177
vt 0.657230 0.251858
vt 0.657234 0.168624
vt 0.725189 0.116865
vt 0.809930 0.135312
vt 0.847723 0.210238
vt 0.504805 0.610991
vt 0.437170 0.483579
vt 0.437262 0.738519
vt 0.284167 0.769858
vt 0.160827 0.681306
vt 0.161255 0.539438
vt 0.284656 0.451733
vt 0.501251 0.225946
vt 0.442253 0.348687
vt 0.442035 0.103206
vt 0.309752 0.072964
vt 0.203642 0.157802
vt 0.203390 0.294051
vt 0.309741 0.378981
vt 0.925382 0.593438
vt 0.857248 0.728954
vt 0.857130 0.458182
vt 0.703030 0.423783
vt 0.577712 0.517586
vt 0.577482 0.669263
vt 0.702978 0.763357
vt 0.950948 0.210243
vt 0.874297 0.057987
vt 0.874295 0.362499
vt 0.701978 0.400111
vt 0.563866 0.294719
vt 0.563864 0.125767
vt 0.701979 0.020368
vt 0.013201 0.811518
vt 0.013291 0.850800
vt 0.025075 0.874341
vt 0.981936 0.787964
vt 0.012704 0.920568
vt 0.011390 0.957387
vt 0.023355 0.981245
vt 0.979474 0.896839
vt 0.035073 0.074612
vt 0.817451 0.659777
vt 0.444184 0.611075
vt 0.107220 0.635622
vt 0.035609 0.168078
vt 0.399500 0.687341
vt 0.035562 0.261443
vt 0.299293 0.706024
vt 0.034969 0.354898
vt 0.218679 0.652628
vt 0.034275 0.448515
vt 0.219840 0.567804
vt 0.034004 0.542268
vt 0.300588 0.515414
vt 0.107935 0.074249
vt 0.035073 0.729645
vn 0.261136 -0.336855 0.904620
vn -0.097160 -0.424099 0.900389
vn -0.064298 -0.295002 0.953331
vn 0.196823 -0.235744 0.951675
vn -0.382999 -0.190532 0.903886
vn -0.260775 -0.122165 0.957639
vn -0.372400 0.172077 0.911980
vn -0.251222 0.132559 0.958809
vn -0.090986 0.385460 0.918228
vn -0.057660 0.279584 0.958388
vn 0.248312 0.307518 0.918572
vn 0.177721 0.227533 0.957415
vn 0.408322 -0.006342 0.912816
vn 0.296171 0.007590 0.955105
vn -0.000000 -0.000000 1.000000
vn 0.435073 -0.545450 -0.716377
vn -0.155125 -0.680048 -0.716569
vn -0.000000 0.000000 -1.000000
vn -0.628280 -0.302608 -0.716723
vn -0.628280 0.302608 -0.716723
vn -0.155126 0.680047 -0.716569
vn 0.435073 0.545450 -0.716377
vn 0.697801 -0.000000 -0.716291
vn -0.142361 0.642144 -0.753249
vn 0.413066 0.517968 -0.749056
vn 0.534011 0.670118 -0.515533
vn -0.190911 0.834726 -0.516513
vn -0.578917 0.283613 -0.764473
vn -0.771129 0.371168 -0.517296
vn -0.562762 -0.276679 -0.778940
vn -0.771129 -0.371168 -0.517296
vn -0.138247 -0.623588 -0.769432
vn -0.190911 -0.834726 -0.516513
vn 0.413066 -0.517968 -0.749057
vn 0.534011 -0.670118 -0.515533
vn 0.662506 0.000000 -0.749057
vn 0.857133 0.000000 -0.515096
vn -0.209723 0.911311 0.354300
vn 0.582801 0.730810 0.355331
vn 0.582801 0.730810 -0.355331
vn -0.209723 0.911311 -0.354300
vn -0.850545 0.394635 0.347616
vn -0.850545 0.394635 -0.347616
vn -0.840143 -0.399197 0.367152
vn -0.840143 -0.399197 -0.367152
vn -0.186344 -0.907256 0.377044
vn -0.186344 -0.907256 -0.377044
vn 0.582801 -0.730810 0.355331
vn 0.582801 -0.730810 -0.355331
vn 0.934740 0.000000 0.355331
vn 0.934740 0.000000 -0.355331
vn -0.209125 0.907827 0.363479
vn 0.580547 0.727983 0.364699
vn 0.580547 0.727983 -0.364699
vn -0.209125 0.907827 -0.363479
vn -0.847278 0.391631 0.358810
vn -0.849508 0.392235 -0.352828
vn -0.835402 -0.399142 0.377875
vn -0.837753 -0.402360 -0.369156
vn -0.188104 -0.903181 0.385851
vn -0.185314 -0.905553 -0.381618
vn 0.578996 -0.729664 0.363804
vn 0.579579 -0.729844 -0.362513
vn 0.931125 0.000000 0.364699
vn 0.931125 0.000000 -0.364699
vn -0.127672 0.579795 -0.804697
vn 0.373718 0.468628 -0.800451
vn 0.445758 0.560541 -0.697921
vn -0.157125 0.686677 -0.709779
vn -0.511731 0.256707 -0.819898
vn -0.616179 0.301352 -0.727675
vn -0.490876 -0.236045 -0.838643
vn -0.606799 -0.287304 -0.741115
vn -0.116155 -0.547921 -0.828427
vn -0.146519 -0.661489 -0.735503
vn 0.375103 -0.461081 -0.804178
vn 0.439305 -0.545370 -0.713850
vn 0.599398 -0.000000 -0.800452
vn 0.715699 0.001024 -0.698408
vn -0.168361 0.751235 -0.638201
vn 0.488922 0.609416 -0.624153
vn 0.487441 0.605468 0.629134
vn -0.166976 0.743993 0.646988
vn -0.681502 0.332037 -0.652155
vn -0.677309 0.328676 0.658198
vn -0.681550 -0.324254 -0.656009
vn -0.681889 -0.326010 0.654787
vn -0.172991 -0.742754 -0.646832
vn -0.173430 -0.749028 0.639437
vn 0.481589 -0.608196 -0.631006
vn 0.485079 -0.613415 0.623234
vn 0.784001 -0.002044 -0.620756
vn 0.785809 -0.003890 0.618456
vn -0.181594 0.796996 0.576039
vn 0.518472 0.648864 0.556922
vn 0.464547 0.582523 0.666981
vn -0.161425 0.723657 0.671016
vn -0.730308 0.351254 0.585893
vn -0.657146 0.320767 0.682106
vn -0.733417 -0.353884 0.580402
vn -0.642500 -0.314495 0.698775
vn -0.183697 -0.805590 0.563276
vn -0.157690 -0.706914 0.689497
vn 0.521913 -0.655159 0.546236
vn 0.464546 -0.582523 0.666981
vn 0.839710 -0.000788 0.543034
vn 0.745075 0.000000 0.666981
vn -0.148769 -0.652754 -0.742819
vn 0.418071 -0.523970 -0.742073
vn -0.602553 -0.290279 -0.743417
vn -0.602553 0.290279 -0.743417
vn -0.148769 0.652753 -0.742819
vn 0.418071 0.523970 -0.742073
vn 0.670688 0.000000 -0.741740
s 1
g pCylinder2
usemtl lambert3SG
f 1/1/1 2/2/2 34/125/3 35/124/4
f 2/2/2 3/5/5 33/126/6 34/125/3
f 3/5/5 4/7/7 32/127/8 33/126/6
f 4/7/7 5/9/9 31/128/10 32/127/8
f 5/9/9 6/11/11 30/123/12 31/128/10
f 6/11/11 7/13/13 36/122/14 30/123/12
f 7/13/13 1/1/1 35/124/4 36/122/14
f 2/2/2 1/1/1 15/15/15
f 3/5/5 2/2/2 15/15/15
f 4/7/7 3/5/5 15/15/15
f 5/9/9 4/7/7 15/15/15
f 6/11/11 5/9/9 15/15/15
f 7/13/13 6/11/11 15/15/15
f 1/1/1 7/13/13 15/15/15
f 100/16/16 101/17/17 102/18/18
f 101/17/17 103/19/19 102/18/18
f 103/19/19 104/20/20 102/18/18
f 104/20/20 105/21/21 102/18/18
f 105/21/21 106/22/22 102/18/18
f 106/22/22 107/23/23 102/18/18
f 107/23/23 100/16/16 102/18/18
f 17/142/24 16/137/25 13/26/26 12/27/27
f 18/141/28 17/142/24 12/27/27 11/29/29
f 19/140/30 18/141/28 11/29/29 10/31/31
f 20/139/32 19/140/30 10/31/31 9/33/33
f 21/138/34 20/139/32 9/33/33 8/35/35
f 22/136/36 21/138/34 8/35/35 14/37/37
f 16/137/25 22/136/36 14/37/37 13/26/26
f 73/38/38 72/39/39 74/40/40 75/41/41
f 76/42/42 73/38/38 75/41/41 77/43/43
f 78/44/44 76/42/42 77/43/43 79/45/45
f 80/46/46 78/44/44 79/45/45 81/47/47
f 82/48/48 80/46/46 81/47/47 83/49/49
f 84/147/50 82/48/48 83/49/49 85/148/51
f 72/39/39 84/50/50 85/51/51 74/40/40
f 87/52/52 86/53/53 88/54/54 89/55/55
f 90/56/56 87/52/52 89/55/55 91/57/57
f 92/58/58 90/56/56 91/57/57 93/59/59
f 94/60/60 92/58/58 93/59/59 95/61/61
f 96/62/62 94/60/60 95/61/61 97/63/63
f 98/143/64 96/62/62 97/63/63 99/144/65
f 86/53/53 98/64/64 99/65/65 88/54/54
f 38/121/66 37/116/67 44/68/68 45/69/69
f 39/120/70 38/121/66 45/69/69 46/71/71
f 40/119/72 39/120/70 46/71/71 47/73/73
f 41/118/74 40/119/72 47/73/73 48/75/75
f 42/117/76 41/118/74 48/75/75 49/77/77
f 43/115/78 42/117/76 49/77/77 50/79/79
f 37/116/67 43/115/78 50/79/79 44/68/68
f 59/80/80 58/154/81 60/82/82 61/163/83
f 62/84/84 59/80/80 61/163/83 63/161/85
f 64/86/86 62/84/84 63/161/85 65/159/87
f 66/88/88 64/86/86 65/159/87 67/157/89
f 68/90/90 66/88/88 67/157/89 69/155/91
f 70/165/92 68/90/90 69/155/91 71/151/93
f 58/154/81 70/92/92 71/166/93 60/82/82
f 52/94/94 51/95/95 23/130/96 24/135/97
f 53/98/98 52/94/94 24/135/97 25/134/99
f 54/100/100 53/98/98 25/134/99 26/133/101
f 55/102/102 54/100/100 26/133/101 27/132/103
f 56/104/104 55/102/102 27/132/103 28/131/105
f 57/106/106 56/104/104 28/131/105 29/129/107
f 51/95/95 57/106/106 29/129/107 23/130/96
f 45/69/69 44/68/68 58/81/81 59/164/80
f 51/95/95 52/94/94 61/83/83 60/152/82
f 46/71/71 45/69/69 59/164/80 62/162/84
f 52/94/94 53/98/98 63/85/85 61/83/83
f 47/73/73 46/71/71 62/162/84 64/160/86
f 53/98/98 54/100/100 65/87/87 63/85/85
f 48/75/75 47/73/73 64/160/86 66/158/88
f 54/100/100 55/102/102 67/89/89 65/87/87
f 49/77/77 48/75/75 66/158/88 68/156/90
f 55/102/102 56/104/104 69/91/91 67/89/89
f 50/79/79 49/77/77 68/156/90 70/153/92
f 56/104/104 57/106/106 71/93/93 69/91/91
f 44/68/68 50/79/79 70/153/92 58/81/81
f 57/106/106 51/95/95 60/152/82 71/93/93
f 24/97/97 23/96/96 72/39/39 73/38/38
f 16/25/25 17/24/24 75/41/41 74/40/40
f 25/99/99 24/97/97 73/38/38 76/42/42
f 17/24/24 18/28/28 77/43/43 75/41/41
f 26/101/101 25/99/99 76/42/42 78/44/44
f 18/28/28 19/30/30 79/45/45 77/43/43
f 27/103/103 26/101/101 78/44/44 80/46/46
f 19/30/30 20/32/32 81/47/47 79/45/45
f 28/105/105 27/103/103 80/46/46 82/48/48
f 20/32/32 21/34/34 83/49/49 81/47/47
f 29/107/107 28/105/105 82/48/48 84/147/50
f 21/34/34 22/149/36 85/148/51 83/49/49
f 23/96/96 29/150/107 84/50/50 72/39/39
f 22/36/36 16/25/25 74/40/40 85/51/51
f 31/10/10 30/12/12 86/53/53 87/52/52
f 37/67/67 38/66/66 89/55/55 88/54/54
f 32/8/8 31/10/10 87/52/52 90/56/56
f 38/66/66 39/70/70 91/57/57 89/55/55
f 33/6/6 32/8/8 90/56/56 92/58/58
f 39/70/70 40/72/72 93/59/59 91/57/57
f 34/3/3 33/6/6 92/58/58 94/60/60
f 40/72/72 41/74/74 95/61/61 93/59/59
f 35/4/4 34/3/3 94/60/60 96/62/62
f 41/74/74 42/76/76 97/63/63 95/61/61
f 36/14/14 35/4/4 96/62/62 98/143/64
f 42/76/76 43/145/78 99/144/65 97/63/63
f 30/12/12 36/146/14 98/64/64 86/53/53
f 43/78/78 37/67/67 88/54/54 99/65/65
f 8/35/35 9/33/33 112/108/108 113/109/109
f 9/33/33 10/31/31 111/110/110 112/108/108
f 10/31/31 11/29/29 110/111/111 111/110/110
f 11/29/29 12/27/27 109/112/112 110/111/111
f 12/27/27 13/26/26 108/113/113 109/112/112
f 13/26/26 14/37/37 114/114/114 108/113/113
f 14/37/37 8/35/35 113/109/109 114/114/114
f 109/112/112 108/113/113 106/22/22 105/21/21
f 110/111/111 109/112/112 105/21/21 104/20/20
f 111/110/110 110/111/111 104/20/20 103/19/19
f 112/108/108 111/110/110 103/19/19 101/17/17
f 113/109/109 112/108/108 101/17/17 100/16/16
f 114/114/114 113/109/109 100/16/16 107/23/23
f 108/113/113 114/114/114 107/23/23 106/22/22
