# This file uses centimeters as units for non-parametric coordinates.

mtllib big_frame.mtl
g default
v 0.000000 -16.041979 2.539539
v 13.967459 0.000000 2.539539
v -13.967459 0.000000 2.539539
v 0.000000 16.041979 2.539539
v -13.967459 0.000000 -2.539539
v 0.000000 16.041979 -2.539539
v 0.000000 -16.041979 -2.539539
v 13.967459 0.000000 -2.539539
v 0.000000 -15.232078 2.630611
v 13.153053 0.000000 2.630611
v 0.000000 15.232078 2.630611
v -13.153053 0.000000 2.630611
v -13.153053 0.000000 -2.630611
v 0.000000 15.232078 -2.630611
v 13.153053 0.000000 -2.630611
v 0.000000 -15.232078 -2.630611
v 0.000000 -14.434967 1.034363
v 12.308777 0.000000 1.034363
v 0.000000 14.434967 1.034363
v -12.308777 0.000000 1.034363
v -12.308777 0.000000 -1.034363
v 0.000000 14.434967 -1.034363
v 12.308777 0.000000 -1.034363
v 0.000000 -14.434967 -1.034363
v -14.682732 0.000000 -0.734064
v -14.682732 0.000000 0.734064
v 0.000000 -16.964828 0.706615
v 0.000000 -16.964828 -0.706615
v 14.682732 0.000000 0.734064
v 14.682732 0.000000 -0.734064
v 0.000000 16.964830 0.706615
v 0.000000 16.964830 -0.706615
vt 0.149706 0.711212
vt 0.237921 0.936555
vt 0.219437 0.954781
vt 0.126571 0.711215
vt 0.778536 0.462695
vt 0.873419 0.711212
vt 0.849893 0.711214
vt 0.759695 0.481354
vt 0.778554 0.959737
vt 0.759704 0.941073
vt 0.219420 0.467640
vt 0.237912 0.485871
vt 0.841079 0.711215
vt 0.756491 0.490818
vt 0.756498 0.931608
vt 0.158167 0.711212
vt 0.241068 0.927285
vt 0.241060 0.495141
vt 0.960897 0.711192
vt 0.863005 0.965379
vt 0.859711 0.955235
vt 0.951572 0.711192
vt 0.138161 0.970733
vt 0.038230 0.711228
vt 0.047603 0.711229
vt 0.141660 0.960281
vt 0.138136 0.451678
vt 0.141633 0.462129
vt 0.862940 0.457067
vt 0.859646 0.467212
vt 0.819328 0.711216
vt 0.740593 0.506297
vt 0.740597 0.916128
vt 0.179554 0.711211
vt 0.256661 0.912186
vt 0.256657 0.510242
vt 0.842698 0.938160
vt 0.927069 0.711191
vt 0.072572 0.711232
vt 0.158955 0.942996
vt 0.158922 0.479401
vt 0.842630 0.484303
vt 0.882944 0.438169
vt 0.986642 0.711191
vt 0.011942 0.711228
vt 0.117805 0.432584
vt 0.117826 0.989831
vt 0.883008 0.984270
vt 0.109905 0.711190
vt 0.203750 0.961743
vt 0.203782 0.460715
vt 0.794554 0.455567
vt 0.890468 0.711237
vt 0.794522 0.966828
vt 0.098416 0.711196
vt 0.183327 0.931784
vt 0.818732 0.927086
vt 0.901629 0.711227
vt 0.818762 0.495326
vt 0.183392 0.490669
vn -0.861002 -0.000000 0.508602
vn -0.000000 0.842149 0.539244
vn 0.000000 0.973499 0.228692
vn -0.978167 0.000000 0.207822
vn 0.000000 -0.973499 0.228692
vn 0.978167 0.000000 0.207822
vn 0.861002 -0.000000 0.508602
vn 0.000000 -0.842149 0.539244
vn -0.541457 0.000000 0.840728
vn 0.000000 0.457383 0.889270
vn -0.000000 -0.457383 0.889270
vn 0.541457 0.000000 0.840728
vn -0.861002 -0.000000 -0.508602
vn 0.000000 0.842149 -0.539244
vn 0.000000 -0.457383 -0.889270
vn 0.541457 0.000000 -0.840728
vn 0.861002 -0.000000 -0.508602
vn -0.541457 0.000000 -0.840728
vn 0.000000 -0.842149 -0.539244
vn -0.000000 0.457383 -0.889270
vn -0.973903 0.000000 0.226965
vn 0.000000 0.964137 0.265405
vn -0.000000 -0.964137 0.265405
vn 0.973903 0.000000 0.226965
vn 0.000000 -0.964137 -0.265405
vn 0.973903 0.000000 -0.226965
vn -0.973903 0.000000 -0.226965
vn -0.000000 0.964137 -0.265405
vn 0.000000 -0.973499 -0.228692
vn -0.978167 0.000000 -0.207822
vn 0.978167 0.000000 -0.207822
vn 0.000000 0.973499 -0.228692
s 1
g big_frame
usemtl lambert2SG
f 3/1/1 4/2/2 31/3/3 26/4/4
f 27/5/5 29/6/6 2/7/7 1/8/8
f 2/7/7 29/6/6 31/9/3 4/10/2
f 26/4/4 27/11/5 1/12/8 3/1/1
f 1/8/8 2/7/7 10/13/9 9/14/10
f 2/7/7 4/10/2 11/15/11 10/13/9
f 4/2/2 3/1/1 12/16/12 11/17/11
f 3/1/1 1/12/8 9/18/10 12/16/12
f 5/19/13 6/20/14 14/21/15 13/22/16
f 6/23/14 8/24/17 15/25/18 14/26/15
f 8/24/17 7/27/19 16/28/20 15/25/18
f 7/29/19 5/19/13 13/22/16 16/30/20
f 9/14/10 10/13/9 18/31/21 17/32/22
f 10/13/9 11/15/11 19/33/23 18/31/21
f 11/17/11 12/16/12 20/34/24 19/35/23
f 12/16/12 9/18/10 17/36/22 20/34/24
f 13/22/16 14/21/15 22/37/25 21/38/26
f 14/26/15 15/25/18 23/39/27 22/40/25
f 15/25/18 16/28/20 24/41/28 23/39/27
f 16/30/20 13/22/16 21/38/26 24/42/28
f 7/29/19 28/43/29 25/44/30 5/19/13
f 7/27/19 8/24/17 30/45/31 28/46/29
f 32/47/32 30/45/31 8/24/17 6/23/14
f 25/44/30 32/48/32 6/20/14 5/19/13
f 25/49/30 26/4/4 31/3/3 32/50/32
f 26/4/4 25/49/30 28/51/29 27/11/5
f 27/5/5 28/52/29 30/53/31 29/6/6
f 29/6/6 30/53/31 32/54/32 31/9/3
f 18/55/21 19/56/23 22/40/25 23/39/27
f 19/57/23 20/58/24 21/38/26 22/37/25
f 20/58/24 17/59/22 24/42/28 21/38/26
f 17/60/22 18/55/21 23/39/27 24/41/28
