# This file uses centimeters as units for non-parametric coordinates.

mtllib bonus_orb.mtl
g default
v -0.965790 -3.674072 -1.135351
v -0.368896 -3.674072 -0.701687
v 0.368896 -3.674072 -0.701687
v 0.965790 -3.674072 -1.135353
v 1.193779 -3.674072 -1.837038
v -1.193779 -3.674072 -1.837038
v -1.837036 -3.125366 -0.502352
v -0.701683 -3.125366 0.322529
v 0.701683 -3.125366 0.322529
v 1.837036 -3.125366 -0.502352
v 2.270706 -3.125366 -1.837038
v -2.270706 -3.125366 -1.837038
v -2.528465 -2.270706 0.000000
v -0.965790 -2.270706 1.135351
v 0.965790 -2.270706 1.135351
v 2.528465 -2.270706 0.000000
v 3.125359 -2.270706 -1.837038
v -3.125351 -2.270706 -1.837038
v -2.972389 -1.193787 0.322529
v -1.135353 -1.193787 1.657215
v 1.135353 -1.193787 1.657215
v 2.972389 -1.193787 0.322529
v 3.674072 -1.193787 -1.837038
v -3.674072 -1.193787 -1.837038
v -3.125351 0.000000 0.433666
v -1.193779 0.000000 1.837036
v 1.193779 0.000000 1.837036
v 3.125359 0.000000 0.433664
v 3.863152 0.000000 -1.837038
v -3.863152 0.000000 -1.837038
v -2.972389 1.193771 0.322529
v -1.135353 1.193771 1.657215
v 1.135353 1.193771 1.657215
v 2.972389 1.193771 0.322529
v 3.674072 1.193771 -1.837038
v -3.674072 1.193771 -1.837038
v -2.528465 2.270691 0.000000
v -0.965790 2.270691 1.135351
v 0.965790 2.270691 1.135351
v 2.528465 2.270691 0.000000
v 3.125359 2.270691 -1.837038
v -3.125351 2.270691 -1.837038
v -1.837036 3.125351 -0.502352
v -0.701683 3.125351 0.322529
v 0.701683 3.125351 0.322529
v 1.837036 3.125351 -0.502352
v 2.270706 3.125351 -1.837038
v -2.270706 3.125351 -1.837038
v -0.965790 3.674072 -1.135351
v -0.368896 3.674072 -0.701687
v 0.368896 3.674072 -0.701687
v 0.965790 3.674072 -1.135353
v 1.193779 3.674072 -1.837038
v -1.193779 3.674072 -1.837038
v 0.000000 -3.863159 -1.837038
v 0.000000 3.863159 -1.837038
vt 0.469750 0.602804
vt 0.490574 0.608396
vt 0.485264 0.637620
vt 0.453555 0.630963
vt 0.512105 0.608382
vt 0.517542 0.637600
vt 0.532986 0.602524
vt 0.549308 0.630877
vt 0.549500 0.589572
vt 0.580200 0.611955
vt 0.453265 0.590066
vt 0.422977 0.612120
vt 0.482110 0.662919
vt 0.443269 0.657090
vt 0.520725 0.662982
vt 0.559722 0.657162
vt 0.603279 0.640801
vt 0.399873 0.640692
vt 0.480401 0.685926
vt 0.437339 0.682765
vt 0.522476 0.685972
vt 0.565414 0.682857
vt 0.617569 0.673509
vt 0.385466 0.673208
vt 0.479799 0.708259
vt 0.435372 0.708182
vt 0.522988 0.708159
vt 0.567415 0.708237
vt 0.622343 0.708396
vt 0.380443 0.708022
vt 0.480308 0.730444
vt 0.437371 0.733560
vt 0.522385 0.730491
vt 0.565447 0.733652
vt 0.617320 0.743209
vt 0.385218 0.742908
vt 0.482062 0.753437
vt 0.443065 0.759255
vt 0.520676 0.753498
vt 0.559516 0.759328
vt 0.602913 0.775725
vt 0.399506 0.775616
vt 0.485244 0.778815
vt 0.453478 0.785540
vt 0.517522 0.778797
vt 0.549231 0.785454
vt 0.579809 0.804297
vt 0.422587 0.804462
vt 0.490681 0.808035
vt 0.469801 0.813895
vt 0.512212 0.808022
vt 0.533036 0.813613
vt 0.549521 0.826352
vt 0.453286 0.826845
vt 0.490815 0.576569
vt 0.501198 0.577686
vt 0.511534 0.576379
vt 0.519945 0.573186
vt 0.482374 0.573528
vt 0.491252 0.840039
vt 0.501589 0.838732
vt 0.511971 0.839849
vt 0.520412 0.842890
vt 0.482842 0.843232
vn -0.323951 -0.916329 0.235365
vn -0.123738 -0.916329 0.380828
vn -0.195836 -0.773547 0.602722
vn -0.512705 -0.773547 0.372503
vn 0.123738 -0.916329 0.380828
vn 0.195836 -0.773547 0.602721
vn 0.323951 -0.916329 0.235365
vn 0.512705 -0.773547 0.372503
vn 0.397079 -0.908671 0.129019
vn 0.620716 -0.757651 0.201684
vn -0.397079 -0.908671 0.129019
vn -0.620717 -0.757651 0.201683
vn -0.256443 -0.557962 0.789250
vn -0.671377 -0.557962 0.487783
vn 0.256443 -0.557962 0.789250
vn 0.671376 -0.557962 0.487784
vn 0.801250 -0.538721 0.260343
vn -0.801250 -0.538721 0.260341
vn -0.295556 -0.291929 0.909628
vn -0.773777 -0.291929 0.562181
vn 0.295556 -0.291929 0.909628
vn 0.773776 -0.291930 0.562181
vn 0.913352 -0.278779 0.296766
vn -0.913352 -0.278778 0.296766
vn -0.309017 -0.000000 0.951057
vn -0.809017 -0.000000 0.587785
vn 0.309017 -0.000000 0.951057
vn 0.809017 -0.000000 0.587785
vn 0.951057 -0.000000 0.309016
vn -0.951057 -0.000000 0.309017
vn -0.295556 0.291931 0.909628
vn -0.773776 0.291931 0.562180
vn 0.295556 0.291931 0.909628
vn 0.773776 0.291932 0.562181
vn 0.913352 0.278781 0.296765
vn -0.913352 0.278780 0.296766
vn -0.256443 0.557962 0.789250
vn -0.671376 0.557962 0.487783
vn 0.256443 0.557962 0.789250
vn 0.671376 0.557962 0.487784
vn 0.801250 0.538721 0.260343
vn -0.801250 0.538721 0.260341
vn -0.195836 0.773545 0.602724
vn -0.512707 0.773545 0.372504
vn 0.195836 0.773545 0.602724
vn 0.512707 0.773546 0.372504
vn 0.620718 0.757649 0.201685
vn -0.620719 0.757649 0.201684
vn -0.123741 0.916325 0.380836
vn -0.323958 0.916325 0.235370
vn 0.123741 0.916326 0.380836
vn 0.323958 0.916325 0.235370
vn 0.397087 0.908667 0.129022
vn -0.397087 0.908667 0.129022
vn -0.000000 -0.994241 0.107169
vn -0.000000 0.994241 0.107169
s 1
g bonus_orb
usemtl lambert2SG
f 1/1/1 2/2/2 8/3/3 7/4/4
f 2/2/2 3/5/5 9/6/6 8/3/3
f 3/5/5 4/7/7 10/8/8 9/6/6
f 4/7/7 5/9/9 11/10/10 10/8/8
f 6/11/11 1/1/1 7/4/4 12/12/12
f 7/4/4 8/3/3 14/13/13 13/14/14
f 8/3/3 9/6/6 15/15/15 14/13/13
f 9/6/6 10/8/8 16/16/16 15/15/15
f 10/8/8 11/10/10 17/17/17 16/16/16
f 12/12/12 7/4/4 13/14/14 18/18/18
f 13/14/14 14/13/13 20/19/19 19/20/20
f 14/13/13 15/15/15 21/21/21 20/19/19
f 15/15/15 16/16/16 22/22/22 21/21/21
f 16/16/16 17/17/17 23/23/23 22/22/22
f 18/18/18 13/14/14 19/20/20 24/24/24
f 19/20/20 20/19/19 26/25/25 25/26/26
f 20/19/19 21/21/21 27/27/27 26/25/25
f 21/21/21 22/22/22 28/28/28 27/27/27
f 22/22/22 23/23/23 29/29/29 28/28/28
f 24/24/24 19/20/20 25/26/26 30/30/30
f 25/26/26 26/25/25 32/31/31 31/32/32
f 26/25/25 27/27/27 33/33/33 32/31/31
f 27/27/27 28/28/28 34/34/34 33/33/33
f 28/28/28 29/29/29 35/35/35 34/34/34
f 30/30/30 25/26/26 31/32/32 36/36/36
f 31/32/32 32/31/31 38/37/37 37/38/38
f 32/31/31 33/33/33 39/39/39 38/37/37
f 33/33/33 34/34/34 40/40/40 39/39/39
f 34/34/34 35/35/35 41/41/41 40/40/40
f 36/36/36 31/32/32 37/38/38 42/42/42
f 37/38/38 38/37/37 44/43/43 43/44/44
f 38/37/37 39/39/39 45/45/45 44/43/43
f 39/39/39 40/40/40 46/46/46 45/45/45
f 40/40/40 41/41/41 47/47/47 46/46/46
f 42/42/42 37/38/38 43/44/44 48/48/48
f 43/44/44 44/43/43 50/49/49 49/50/50
f 44/43/43 45/45/45 51/51/51 50/49/49
f 45/45/45 46/46/46 52/52/52 51/51/51
f 46/46/46 47/47/47 53/53/53 52/52/52
f 48/48/48 43/44/44 49/50/50 54/54/54
f 2/2/2 1/1/1 55/55/55
f 3/5/5 2/2/2 55/56/55
f 4/7/7 3/5/5 55/57/55
f 5/9/9 4/7/7 55/58/55
f 1/1/1 6/11/11 55/59/55
f 49/50/50 50/49/49 56/60/56
f 50/49/49 51/51/51 56/61/56
f 51/51/51 52/52/52 56/62/56
f 52/52/52 53/53/53 56/63/56
f 54/54/54 49/50/50 56/64/56
