# This file uses centimeters as units for non-parametric coordinates.

mtllib popup_button.mtl
g default
v 1.997550 -0.197281 0.197023
v -1.997550 -0.199630 0.197023
v 1.993951 0.780905 0.197023
v -1.997550 0.784623 0.197023
v 1.879314 0.686053 0.320002
v -1.879244 0.686298 0.320002
v -1.879244 -0.105568 0.320002
v 1.879334 -0.103219 0.320002
v 1.996215 0.209375 0.196942
v -1.996096 0.209375 0.196942
v -1.879193 0.209375 0.320172
v 1.879224 0.209375 0.320172
v 0.000059 0.787638 0.196942
v 0.000059 -0.792500 0.196942
v 0.000060 -0.686298 0.320172
v 0.000060 0.685698 0.320172
v 1.966047 0.759802 0.389155
v 1.993951 0.783127 0.359427
v 0.000059 0.755277 0.389161
v 0.000059 0.785417 0.359427
v 1.971907 -0.176884 0.389155
v 1.997550 -0.197281 0.359424
v 0.000059 -0.762767 0.389161
v 0.000059 -0.792500 0.359424
v 1.966482 0.209375 0.389160
v 1.996215 0.209375 0.359424
v -1.997550 0.784391 0.359424
v -1.969130 0.760745 0.389155
v -1.966362 0.209375 0.389160
v -1.996096 0.209375 0.359424
v 1.879300 0.686033 0.359414
v 1.907944 0.710387 0.389150
v 0.000059 0.715623 0.389165
v 0.000060 0.685807 0.359435
v -1.908466 0.710361 0.389150
v -1.879255 0.686189 0.359414
v -1.879182 0.209375 0.359435
v -1.908907 0.209375 0.389166
v 1.879314 -0.103219 0.359414
v 1.905192 -0.123816 0.389149
v 0.000060 -0.686298 0.359435
v 0.000059 -0.716032 0.389165
v 1.908993 0.209375 0.389166
v 1.879244 0.209375 0.359435
v -1.971901 -0.179235 0.389155
v -1.997550 -0.199630 0.359424
v -1.879255 -0.105568 0.359414
v -1.905161 -0.126163 0.389149
vt 0.939845 0.984704
vt 0.743855 0.984125
vt 0.743901 0.968850
vt 0.939890 0.969421
vt 0.737658 0.982799
vt 0.540825 0.982745
vt 0.540829 0.966743
vt 0.737661 0.966788
vt 0.257102 0.997902
vt 0.204967 0.997752
vt 0.204988 0.983028
vt 0.257145 0.983170
vt 0.199409 0.980108
vt 0.199275 0.965270
vt 0.251692 0.965513
vt 0.251623 0.980357
vt 0.010539 0.972093
vt 0.194763 0.972801
vt 0.194759 0.976629
vt 0.004678 0.976950
vt 0.858502 0.863976
vt 0.921781 0.864438
vt 0.921768 0.871032
vt 0.864269 0.870951
vt 0.402164 0.944412
vt 0.598573 0.946626
vt 0.597258 0.950892
vt 0.406762 0.951134
vt 0.823710 0.895826
vt 0.877256 0.895814
vt 0.877268 0.901958
vt 0.818443 0.902047
vt 0.194771 0.968737
vt 0.013366 0.968399
vt 0.013375 0.964595
vt 0.194778 0.964947
vt 0.867034 0.875739
vt 0.921751 0.875857
vt 0.921736 0.880363
vt 0.867011 0.880262
vt 0.408549 0.954990
vt 0.596423 0.954820
vt 0.596426 0.958570
vt 0.408554 0.958754
vt 0.877243 0.891319
vt 0.826306 0.891410
vt 0.826295 0.887198
vt 0.877230 0.887123
vt 0.288843 0.965686
vt 0.288774 0.980522
vt 0.294186 0.998008
vt 0.294228 0.983283
vt 0.960281 0.871527
vt 0.966385 0.863879
vt 0.957893 0.876039
vt 0.957871 0.880561
vt 0.910646 0.891162
vt 0.910628 0.886950
vt 0.918549 0.902483
vt 0.912868 0.895362
vt 0.336919 0.958791
vt 0.138555 0.958826
vt 0.138554 0.941039
vt 0.336941 0.940995
vt 0.799648 0.964968
vt 0.605343 0.964938
vt 0.605340 0.947694
vt 0.799631 0.947676
vt 0.794593 0.934030
vt 0.603721 0.933784
vt 0.602399 0.929512
vt 0.799190 0.927293
vt 0.604557 0.941475
vt 0.604560 0.937718
vt 0.792809 0.937893
vt 0.792807 0.941664
vt 0.523733 0.970711
vt 0.337799 0.970997
vt 0.337793 0.967112
vt 0.523729 0.966812
vt 0.532326 0.979395
vt 0.337808 0.979086
vt 0.337805 0.975163
vt 0.526574 0.974509
vt 0.815960 0.906409
vt 0.877268 0.906451
vt 0.535087 0.983133
vt 0.337808 0.983275
vt 0.194758 0.980716
vt 0.001934 0.980616
vt 0.920715 0.906687
vt 0.800943 0.923439
vt 0.601545 0.925580
vt 0.599423 0.942700
vt 0.400410 0.940567
vt 0.855807 0.859246
vt 0.921787 0.859612
vt 0.968713 0.859366
vn -0.284523 -0.958669 -0.000000
vn -0.284523 -0.958669 -0.000000
vn -0.284523 -0.958669 -0.000000
vn -0.284523 -0.958669 -0.000000
vn -0.001011 0.999971 0.007550
vn -0.001011 0.999971 0.007550
vn -0.001011 0.999971 0.007550
vn -0.001011 0.999971 0.007550
vn -0.999997 -0.002528 -0.000002
vn -0.999997 -0.002528 -0.000002
vn -0.999997 -0.002528 -0.000002
vn -0.999997 -0.002528 -0.000002
vn 0.999992 0.003954 -0.000027
vn 0.999992 0.003954 -0.000027
vn 0.999992 0.003954 -0.000027
vn 0.999992 0.003954 -0.000027
vn -0.000005 -0.000017 1.000000
vn -0.000005 -0.000017 1.000000
vn -0.000005 -0.000017 1.000000
vn -0.000005 -0.000017 1.000000
vn 0.000011 0.000020 1.000000
vn 0.000011 0.000020 1.000000
vn 0.000011 0.000020 1.000000
vn 0.000011 0.000020 1.000000
vn -0.000001 0.000014 1.000000
vn -0.000001 0.000014 1.000000
vn -0.000001 0.000014 1.000000
vn -0.000001 0.000014 1.000000
vn -0.000010 0.000020 1.000000
vn -0.000010 0.000020 1.000000
vn -0.000010 0.000020 1.000000
vn -0.000010 0.000020 1.000000
vn -0.000261 -1.000000 -0.000006
vn -0.000261 -1.000000 -0.000006
vn -0.000261 -1.000000 -0.000006
vn -0.000261 -1.000000 -0.000006
vn 1.000000 0.000130 0.000006
vn 1.000000 0.000130 0.000006
vn 1.000000 0.000130 0.000006
vn 1.000000 0.000130 0.000006
vn 0.295238 0.955424 0.000042
vn 0.295238 0.955424 0.000042
vn 0.295238 0.955424 0.000042
vn 0.295238 0.955424 0.000042
vn -1.000000 0.000153 0.000073
vn -1.000000 0.000153 0.000073
vn -1.000000 0.000153 0.000073
vn -1.000000 0.000153 0.000073
vn 0.999995 0.003283 0.000000
vn 0.999995 0.003283 0.000000
vn 0.999995 0.003283 0.000000
vn 0.999995 0.003283 0.000000
vn -0.999994 0.003555 0.000000
vn -0.999994 0.003555 0.000000
vn -0.999994 0.003555 0.000000
vn -0.999994 0.003555 0.000000
vn 0.000019 -0.000030 1.000000
vn 0.000019 -0.000030 1.000000
vn 0.000019 -0.000030 1.000000
vn 0.000019 -0.000030 1.000000
vn 1.000000 -0.000197 0.000006
vn 1.000000 -0.000197 0.000006
vn 1.000000 -0.000197 0.000006
vn 1.000000 -0.000197 0.000006
vn -1.000000 -0.000287 0.000009
vn -1.000000 -0.000287 0.000009
vn -1.000000 -0.000287 0.000009
vn -1.000000 -0.000287 0.000009
vn -0.000019 -0.000030 1.000000
vn -0.000019 -0.000030 1.000000
vn -0.000019 -0.000030 1.000000
vn -0.000019 -0.000030 1.000000
vn 0.002263 0.999997 0.000000
vn 0.002263 0.999997 0.000000
vn 0.002263 0.999997 0.000000
vn 0.002263 0.999997 0.000000
vn 0.285574 -0.958356 -0.000000
vn 0.285574 -0.958356 -0.000000
vn 0.285574 -0.958356 -0.000000
vn 0.285574 -0.958356 -0.000000
vn 0.000001 0.000014 1.000000
vn 0.000001 0.000014 1.000000
vn 0.000001 0.000014 1.000000
vn 0.000001 0.000014 1.000000
vn -0.296334 0.955085 -0.000072
vn -0.296334 0.955084 -0.000072
vn -0.296334 0.955084 -0.000072
vn -0.296334 0.955084 -0.000072
vn 0.000155 -0.999999 0.001134
vn 0.000155 -0.999999 0.001134
vn 0.000155 -0.999999 0.001134
vn 0.000155 -0.999999 0.001134
vn 0.000006 -0.000016 1.000000
vn 0.000006 -0.000016 1.000000
vn 0.000006 -0.000016 1.000000
vn 0.000006 -0.000016 1.000000
vn 0.717711 0.001725 0.696339
vn 0.717711 0.001725 0.696339
vn 0.723929 0.003564 0.689865
vn 0.723966 0.003575 0.689827
vn -0.000419 0.743707 0.668506
vn -0.000419 0.743707 0.668506
vn 0.000207 0.742764 0.669554
vn 0.000207 0.742764 0.669553
vn 0.000829 0.741823 0.670596
vn 0.000829 0.741823 0.670596
vn 0.732883 0.006244 0.680326
vn 0.732883 0.006244 0.680326
vn 0.208743 -0.701519 0.681394
vn 0.208743 -0.701519 0.681394
vn 0.000471 -0.717416 0.696645
vn 0.000365 -0.717416 0.696645
vn -0.207989 -0.701820 0.681315
vn -0.207989 -0.701820 0.681315
vn -0.715484 -0.002678 0.698624
vn -0.715484 -0.002678 0.698624
vn -0.722657 0.001042 0.691206
vn -0.722638 0.001032 0.691226
vn -0.732876 0.006421 0.680332
vn -0.732876 0.006421 0.680332
vn -0.713379 -0.000697 0.700778
vn -0.713379 -0.000697 0.700778
vn -0.719779 0.001214 0.694202
vn -0.719763 0.001210 0.694219
vn -0.000971 -0.739028 0.673674
vn -0.000971 -0.739028 0.673674
vn -0.000013 -0.739590 0.673058
vn -0.000013 -0.739590 0.673058
vn 0.000947 -0.740151 0.672440
vn 0.000947 -0.740151 0.672440
vn 0.710222 -0.000241 0.703977
vn 0.710222 -0.000241 0.703977
vn 0.717868 0.001453 0.696178
vn 0.717889 0.001458 0.696156
vn 0.729555 0.004080 0.683909
vn 0.729555 0.004080 0.683910
vn -0.729563 0.004174 0.683901
vn -0.729563 0.004174 0.683901
vn -0.216384 0.696767 0.683882
vn -0.216384 0.696767 0.683882
vn -0.000493 0.713752 0.700398
vn -0.000379 0.713753 0.700398
vn 0.215596 0.697043 0.683849
vn 0.215596 0.697043 0.683849
s off
g popup_button_frame
usemtl lambert2SG
f 24/1/1 46/2/2 2/3/3 14/4/4
f 13/5/5 4/6/6 27/7/7 20/8/8
f 30/9/9 27/10/10 4/11/11 10/12/12
f 3/13/13 18/14/14 26/15/15 9/16/16
f 35/17/17 33/18/18 19/19/19 28/20/20
f 28/21/21 29/22/22 38/23/23 35/24/24
f 45/25/25 23/26/26 42/27/27 48/28/28
f 32/29/29 43/30/30 25/31/31 17/32/32
f 34/33/33 36/34/34 6/35/35 16/36/36
f 36/37/37 37/38/38 11/39/39 6/40/40
f 47/41/41 41/42/42 15/43/43 7/44/44
f 44/45/45 31/46/46 5/47/47 12/48/48
f 9/16/49 26/15/50 22/49/51 1/50/52
f 46/51/53 30/9/54 10/12/55 2/52/56
f 48/53/57 38/23/58 29/22/59 45/54/60
f 11/39/61 37/38/62 47/55/63 7/56/64
f 39/57/65 44/45/66 12/48/67 8/58/68
f 21/59/69 25/31/70 43/30/71 40/60/72
f 3/61/73 13/62/74 20/63/75 18/64/76
f 22/65/77 24/66/78 14/67/79 1/68/80
f 40/69/81 42/70/82 23/71/83 21/72/84
f 15/73/85 41/74/86 39/75/87 8/76/88
f 31/77/89 34/78/90 16/79/91 5/80/92
f 17/81/93 19/82/94 33/83/95 32/84/96
s 1
f 18/85/97 17/32/98 25/31/99 26/86/100
s 2
f 17/81/101 18/87/102 20/88/103 19/82/104
f 19/19/104 20/89/103 27/90/105 28/20/106
s 1
f 21/59/107 22/91/108 26/86/100 25/31/99
s 3
f 22/92/109 21/72/110 23/71/111 24/93/112
f 24/94/112 23/26/111 45/25/113 46/95/114
s 4
f 28/21/115 27/96/116 30/97/117 29/22/118
f 29/22/118 30/97/117 46/98/119 45/54/120
s 5
f 32/29/121 31/46/122 44/45/123 43/30/124
s 6
f 31/77/125 32/84/126 33/83/127 34/78/128
f 34/33/128 33/18/127 35/17/129 36/34/130
s 7
f 36/37/131 35/24/132 38/23/133 37/38/134
f 37/38/134 38/23/133 48/53/135 47/55/136
s 5
f 39/57/137 40/60/138 43/30/124 44/45/123
s 8
f 40/69/139 39/75/140 41/74/141 42/70/142
f 42/27/142 41/42/141 47/41/143 48/28/144
g default
v 0.000025 0.468568 0.666024
v -1.518633 0.468969 0.665852
v -1.518564 0.190494 0.665896
v 0.000053 0.190662 0.667225
v -1.518501 0.082035 0.665789
v 0.000035 -0.288831 0.666086
v 1.518483 0.190494 0.665896
v 1.518060 0.083246 0.665788
v 1.518918 0.468794 0.665852
v 0.000025 0.468548 0.590392
v -1.518620 0.468951 0.590220
v -1.518543 0.190518 0.590264
v -1.518480 0.082075 0.590157
v 0.000035 -0.288814 0.590454
v 1.518039 0.083287 0.590157
v 1.518463 0.190518 0.590264
v 1.518905 0.468776 0.590220
vt 0.171073 0.848656
vt 0.009958 0.848731
vt 0.009961 0.819188
vt 0.171071 0.819173
vt 0.009964 0.807681
vt 0.171060 0.768302
vt 0.332157 0.819130
vt 0.332113 0.807753
vt 0.332210 0.848653
vt 0.171075 0.856680
vt 0.009963 0.856755
vt 0.001934 0.848729
vt 0.001937 0.819185
vt 0.001939 0.807679
vt 0.008058 0.799887
vt 0.169153 0.760508
vt 0.172971 0.760509
vt 0.334022 0.799959
vt 0.340138 0.807726
vt 0.340179 0.819107
vt 0.332210 0.856677
vt 0.340235 0.848636
vn -0.000494 0.002238 0.999997
vn -0.000494 0.002238 0.999997
vn -0.000494 0.002238 0.999997
vn -0.000494 0.002238 0.999997
vn -0.000794 -0.002120 0.999997
vn -0.000794 -0.002120 0.999997
vn -0.000794 -0.002120 0.999997
vn -0.000794 -0.002120 0.999997
vn 0.000796 -0.002126 0.999997
vn 0.000796 -0.002126 0.999997
vn 0.000796 -0.002126 0.999997
vn 0.000796 -0.002126 0.999997
vn 0.000494 0.002240 0.999997
vn 0.000494 0.002240 0.999997
vn 0.000494 0.002240 0.999997
vn 0.000494 0.002240 0.999997
vn 0.000265 1.000000 -0.000252
vn 0.000265 1.000000 -0.000252
vn 0.000265 1.000000 -0.000252
vn 0.000265 1.000000 -0.000252
vn -1.000000 -0.000264 -0.000224
vn -1.000000 -0.000264 -0.000224
vn -1.000000 -0.000264 -0.000224
vn -1.000000 -0.000264 -0.000224
vn -1.000000 -0.000580 -0.000278
vn -1.000000 -0.000580 -0.000278
vn -1.000000 -0.000580 -0.000278
vn -1.000000 -0.000580 -0.000278
vn -0.237261 -0.971446 -0.000405
vn -0.237261 -0.971446 -0.000405
vn -0.237261 -0.971446 -0.000405
vn -0.237261 -0.971446 -0.000405
vn 0.238068 -0.971249 -0.000407
vn 0.238068 -0.971249 -0.000407
vn 0.238068 -0.971249 -0.000407
vn 0.238068 -0.971249 -0.000407
vn 0.999992 -0.003950 -0.000278
vn 0.999992 -0.003950 -0.000278
vn 0.999992 -0.003950 -0.000278
vn 0.999992 -0.003950 -0.000278
vn -0.000149 1.000000 -0.000252
vn -0.000149 1.000000 -0.000252
vn -0.000149 1.000000 -0.000252
vn -0.000149 1.000000 -0.000252
vn 0.999999 -0.001574 -0.000219
vn 0.999999 -0.001574 -0.000219
vn 0.999999 -0.001574 -0.000219
vn 0.999999 -0.001574 -0.000219
s off
g popup_button_2
usemtl lambert2SG
f 49/99/145 50/100/146 51/101/147 52/102/148
f 52/102/149 51/101/150 53/103/151 54/104/152
f 55/105/153 52/102/154 54/104/155 56/106/156
f 57/107/157 49/99/158 52/102/159 55/105/160
f 50/100/161 49/99/162 58/108/163 59/109/164
f 51/101/165 50/100/166 59/110/167 60/111/168
f 53/103/169 51/101/170 60/111/171 61/112/172
f 54/104/173 53/103/174 61/113/175 62/114/176
f 56/106/177 54/104/178 62/115/179 63/116/180
f 55/105/181 56/106/182 63/117/183 64/118/184
f 49/99/185 57/107/186 65/119/187 58/108/188
f 57/107/189 55/105/190 64/118/191 65/120/192
g default
v 0.000052 0.579460 0.665923
v -1.623181 0.579486 0.665726
v -1.622919 0.205652 0.665923
v -1.623181 -0.019874 0.665726
v 0.000052 -0.443221 0.665923
v 1.623068 0.205652 0.665923
v 1.623137 -0.018161 0.665726
v 1.623121 0.579476 0.665726
v 0.000060 0.685698 0.450731
v -1.879244 0.686298 0.450560
v -1.879193 0.205648 0.450731
v -1.879244 -0.105568 0.450560
v 0.000060 -0.686298 0.450731
v 1.879333 -0.103219 0.450560
v 1.879224 0.205648 0.450731
v 1.879314 0.686054 0.450560
v 0.000060 0.696441 0.337996
v -1.910566 0.697051 0.337822
v -1.910514 0.205699 0.337996
v -1.910566 -0.106642 0.337822
v 0.000060 -0.697051 0.337996
v 1.910655 -0.104254 0.337822
v 1.910544 0.205699 0.337996
v 1.910636 0.696802 0.337822
v 0.000022 0.504230 0.666014
v -1.548119 0.504468 0.665839
v -1.548048 0.205507 0.665884
v -1.547984 0.058005 0.665775
v 0.000033 -0.329653 0.666078
v 1.547960 0.205506 0.665884
v 1.547529 0.059343 0.665775
v 1.548403 0.504364 0.665839
v 0.000022 0.504210 0.590382
v -1.548106 0.504450 0.590208
v -1.518620 0.468951 0.590220
v 0.000025 0.468548 0.590392
v -1.548027 0.205531 0.590253
v -1.518543 0.190518 0.590264
v -1.547963 0.058046 0.590143
v -1.518480 0.082075 0.590157
v 0.000033 -0.329636 0.590446
v 0.000035 -0.288814 0.590454
v 1.547508 0.059384 0.590143
v 1.518039 0.083287 0.590157
v 1.547940 0.205531 0.590253
v 1.518463 0.190518 0.590264
v 1.548390 0.504346 0.590207
v 1.518905 0.468776 0.590220
vt 0.331709 0.588700
vt 0.543476 0.594919
vt 0.513851 0.621299
vt 0.331718 0.615560
vt 0.553283 0.607159
vt 0.555721 0.663845
vt 0.517428 0.664752
vt 0.556511 0.700521
vt 0.515490 0.691738
vt 0.548512 0.713212
vt 0.334897 0.781240
vt 0.331630 0.744345
vt 0.328402 0.781257
vt 0.114621 0.713240
vt 0.147650 0.691781
vt 0.106606 0.700182
vt 0.107623 0.663783
vt 0.145936 0.664851
vt 0.120111 0.595092
vt 0.149759 0.621421
vt 0.110314 0.607121
vt 0.331703 0.575957
vt 0.547374 0.582243
vt 0.566892 0.605359
vt 0.569288 0.663417
vt 0.570118 0.700187
vt 0.555629 0.724467
vt 0.338459 0.793622
vt 0.324845 0.793645
vt 0.107507 0.724499
vt 0.093014 0.699766
vt 0.094057 0.663291
vt 0.116203 0.582427
vt 0.096705 0.605268
vt 0.505150 0.629697
vt 0.331724 0.623916
vt 0.510157 0.664417
vt 0.506479 0.683115
vt 0.331623 0.731415
vt 0.156696 0.683217
vt 0.153245 0.664497
vt 0.158421 0.629833
vt 0.331725 0.632280
vt 0.503228 0.636837
vt 0.499910 0.640526
vt 0.331725 0.636245
vt 0.503107 0.663438
vt 0.499734 0.664499
vt 0.503075 0.676035
vt 0.499703 0.673566
vt 0.331620 0.723176
vt 0.331616 0.718624
vt 0.159951 0.676113
vt 0.163338 0.673667
vt 0.160518 0.663607
vt 0.163862 0.664745
vt 0.160426 0.636933
vt 0.163741 0.640628
vn 0.000044 0.943793 0.330538
vn 0.000226 0.967149 0.254209
vn 0.000114 0.896221 0.443609
vn 0.000114 0.896221 0.443609
vn -0.643176 0.000093 0.765718
vn -0.643176 0.000093 0.765718
vn -0.643176 0.000093 0.765718
vn -0.643176 0.000093 0.765718
vn -0.643173 -0.000149 0.765721
vn -0.643173 -0.000149 0.765721
vn -0.643173 -0.000149 0.765721
vn -0.643173 -0.000149 0.765721
vn -0.205063 -0.715078 0.668291
vn -0.205063 -0.715078 0.668291
vn -0.205063 -0.715078 0.668291
vn -0.205063 -0.715078 0.668291
vn 0.205934 -0.715187 0.667906
vn 0.205934 -0.715187 0.667906
vn 0.205934 -0.715187 0.667906
vn 0.205934 -0.715187 0.667906
vn 0.643146 -0.000312 0.765743
vn 0.643146 -0.000312 0.765743
vn 0.643146 -0.000312 0.765743
vn 0.643146 -0.000312 0.765743
vn -0.000123 0.967212 0.253970
vn -0.000049 0.896399 0.443248
vn -0.000049 0.896399 0.443248
vn 0.643152 0.000221 0.765739
vn 0.643152 0.000221 0.765739
vn 0.643152 0.000221 0.765739
vn 0.643152 0.000221 0.765739
vn 0.000065 0.995491 0.094861
vn 0.000309 0.995491 0.094860
vn -0.963506 0.000000 0.267688
vn -0.963506 -0.000008 0.267688
vn -0.963506 -0.000008 0.267688
vn -0.963506 -0.000000 0.267688
vn -0.963506 0.000012 0.267688
vn -0.963506 0.000012 0.267688
vn -0.294028 -0.951479 0.090751
vn -0.294028 -0.951479 0.090751
vn -0.294028 -0.951479 0.090751
vn -0.294028 -0.951479 0.090751
vn 0.295118 -0.951144 0.090719
vn 0.295118 -0.951144 0.090719
vn 0.295118 -0.951144 0.090719
vn 0.295118 -0.951144 0.090719
vn 0.963508 0.000023 0.267681
vn 0.963507 0.000193 0.267683
vn 0.963507 0.000193 0.267683
vn 0.963508 0.000023 0.267681
vn -0.000180 0.995490 0.094862
vn 0.963508 -0.000085 0.267680
vn 0.963508 -0.000085 0.267680
vn -0.000117 0.001304 0.999999
vn -0.000117 0.001304 0.999999
vn -0.000117 0.001304 0.999999
vn -0.000117 0.001304 0.999999
vn -0.000319 0.000359 1.000000
vn -0.000319 0.000359 1.000000
vn -0.000319 0.000359 1.000000
vn -0.000319 0.000359 1.000000
vn 0.000358 -0.000821 1.000000
vn 0.000358 -0.000821 1.000000
vn 0.000358 -0.000821 1.000000
vn 0.000358 -0.000821 1.000000
vn -0.000390 -0.000909 1.000000
vn -0.000390 -0.000909 1.000000
vn -0.000390 -0.000909 1.000000
vn -0.000390 -0.000909 1.000000
vn 0.000391 -0.000908 1.000000
vn 0.000391 -0.000908 1.000000
vn 0.000391 -0.000908 1.000000
vn 0.000391 -0.000908 1.000000
vn -0.000361 -0.000829 1.000000
vn -0.000361 -0.000829 1.000000
vn -0.000361 -0.000829 1.000000
vn -0.000361 -0.000829 1.000000
vn 0.000117 0.001300 0.999999
vn 0.000117 0.001300 0.999999
vn 0.000117 0.001300 0.999999
vn 0.000117 0.001300 0.999999
vn 0.000314 0.000360 1.000000
vn 0.000314 0.000360 1.000000
vn 0.000314 0.000360 1.000000
vn 0.000314 0.000360 1.000000
vn -0.000113 0.000264 1.000000
vn -0.000113 0.000264 1.000000
vn -0.000113 0.000264 1.000000
vn -0.000113 0.000264 1.000000
vn -0.000285 0.000154 1.000000
vn -0.000285 0.000154 1.000000
vn -0.000285 0.000154 1.000000
vn -0.000285 0.000154 1.000000
vn -0.000308 -0.000848 1.000000
vn -0.000308 -0.000848 1.000000
vn -0.000308 -0.000848 1.000000
vn -0.000308 -0.000848 1.000000
vn -0.000252 -0.000227 1.000000
vn -0.000252 -0.000227 1.000000
vn -0.000252 -0.000227 1.000000
vn -0.000252 -0.000227 1.000000
vn 0.000252 -0.000227 1.000000
vn 0.000252 -0.000227 1.000000
vn 0.000252 -0.000227 1.000000
vn 0.000252 -0.000227 1.000000
vn 0.000309 -0.000860 1.000000
vn 0.000309 -0.000860 1.000000
vn 0.000309 -0.000860 1.000000
vn 0.000309 -0.000860 1.000000
vn 0.000113 0.000264 1.000000
vn 0.000113 0.000264 1.000000
vn 0.000113 0.000264 1.000000
vn 0.000113 0.000264 1.000000
vn 0.000283 0.000156 1.000000
vn 0.000283 0.000156 1.000000
vn 0.000283 0.000156 1.000000
vn 0.000283 0.000156 1.000000
vn -0.000155 -1.000000 0.000251
vn -0.000155 -1.000000 0.000251
vn -0.000155 -1.000000 0.000251
vn -0.000155 -1.000000 0.000251
vn 1.000000 0.000251 0.000222
vn 1.000000 0.000251 0.000222
vn 1.000000 0.000251 0.000222
vn 1.000000 0.000251 0.000222
vn 1.000000 0.000434 0.000276
vn 1.000000 0.000434 0.000276
vn 1.000000 0.000434 0.000276
vn 1.000000 0.000434 0.000276
vn 0.242929 0.970044 0.000404
vn 0.242929 0.970044 0.000404
vn 0.242929 0.970044 0.000404
vn 0.242929 0.970044 0.000404
vn -0.243796 0.969827 0.000408
vn -0.243796 0.969827 0.000408
vn -0.243796 0.969827 0.000408
vn -0.243796 0.969827 0.000408
vn -0.999996 0.002952 0.000276
vn -0.999996 0.002952 0.000276
vn -0.999996 0.002952 0.000276
vn -0.999996 0.002952 0.000276
vn 0.000087 -1.000000 0.000252
vn 0.000087 -1.000000 0.000252
vn 0.000087 -1.000000 0.000252
vn 0.000087 -1.000000 0.000252
vn -0.999999 0.001494 0.000219
vn -0.999999 0.001494 0.000219
vn -0.999999 0.001494 0.000219
vn -0.999999 0.001494 0.000219
s 1
g popup_button_1
usemtl lambert2SG
f 74/121/193 75/122/194 67/123/195 66/124/196
s off
f 75/125/197 76/126/198 68/127/199 67/123/200
f 76/126/201 77/128/202 69/129/203 68/127/204
f 77/130/205 78/131/206 70/132/207 69/129/208
f 78/133/209 79/134/210 72/135/211 70/132/212
f 79/136/213 80/137/214 71/138/215 72/135/216
s 1
f 81/139/217 74/121/193 66/124/218 73/140/219
s off
f 80/137/220 81/141/221 73/140/222 71/138/223
s 1
f 75/122/194 74/121/193 82/142/224 83/143/225
s 3
f 76/126/226 75/125/227 83/144/228 84/145/229
f 77/128/230 76/126/226 84/145/229 85/146/231
s off
f 78/131/232 77/130/233 85/147/234 86/148/235
f 79/134/236 78/133/237 86/149/238 87/150/239
s 4
f 80/137/240 79/136/241 87/151/242 88/152/243
s 1
f 74/121/193 81/139/217 89/153/244 82/142/224
s 4
f 81/141/245 80/137/240 88/152/243 89/154/246
s off
f 66/124/247 67/123/248 91/155/249 90/156/250
f 67/123/251 68/127/252 92/157/253 91/155/254
f 68/127/255 69/129/256 93/158/257 92/157/258
f 69/129/259 70/132/260 94/159/261 93/158/262
f 70/132/263 72/135/264 96/160/265 94/159/266
f 72/135/267 71/138/268 95/161/269 96/160/270
f 73/140/271 66/124/272 90/156/273 97/162/274
f 71/138/275 73/140/276 97/162/277 95/161/278
f 98/163/279 99/164/280 100/165/281 101/166/282
f 99/164/283 102/167/284 103/168/285 100/165/286
f 102/167/287 104/169/288 105/170/289 103/168/290
f 104/169/291 106/171/292 107/172/293 105/170/294
f 106/171/295 108/173/296 109/174/297 107/172/298
f 108/173/299 110/175/300 111/176/301 109/174/302
f 112/177/303 98/163/304 101/166/305 113/178/306
f 110/175/307 112/177/308 113/178/309 111/176/310
f 90/156/311 91/155/312 99/164/313 98/163/314
f 91/155/315 92/157/316 102/167/317 99/164/318
f 92/157/319 93/158/320 104/169/321 102/167/322
f 93/158/323 94/159/324 106/171/325 104/169/326
f 94/159/327 96/160/328 108/173/329 106/171/330
f 96/160/331 95/161/332 110/175/333 108/173/334
f 97/162/335 90/156/336 98/163/337 112/177/338
f 95/161/339 97/162/340 112/177/341 110/175/342
