# This file uses centimeters as units for non-parametric coordinates.

mtllib popup_info.mtl
g default
v 0.000058 -0.101926 0.041911
v 0.000058 -1.370940 0.041911
v 2.208090 -1.543907 0.037120
v 3.466369 -0.101926 0.041911
v 3.070152 1.340051 0.037120
v 0.000058 1.526152 0.041911
v -3.070034 1.340051 0.037120
v -3.466253 -0.101926 0.041911
v -2.207969 -1.543907 0.037120
vt 0.677962 0.336753
vt 0.865268 0.323943
vt 0.968795 0.447332
vt 0.677962 0.447112
vt 0.937374 0.569690
vt 0.677962 0.587824
vt 0.387128 0.447332
vt 0.418549 0.569690
vt 0.490655 0.323943
vn 0.000779 -0.002129 0.999997
vn 0.000779 -0.002129 0.999997
vn 0.000779 -0.002129 0.999997
vn 0.000779 -0.002129 0.999997
vn 0.000780 0.001661 0.999998
vn 0.000780 0.001661 0.999998
vn 0.000780 0.001661 0.999998
vn 0.000780 0.001661 0.999998
vn -0.000780 0.001661 0.999998
vn -0.000780 0.001661 0.999998
vn -0.000780 0.001661 0.999998
vn -0.000780 0.001661 0.999998
vn -0.000779 -0.002129 0.999997
vn -0.000779 -0.002129 0.999997
vn -0.000779 -0.002129 0.999997
vn -0.000779 -0.002129 0.999997
s off
g popyp_info
usemtl lambert2SG
f 2/1/1 3/2/2 4/3/3 1/4/4
f 1/4/5 4/3/6 5/5/7 6/6/8
f 8/7/9 1/4/10 6/6/11 7/8/12
f 9/9/13 2/1/14 1/4/15 8/7/16
g default
v -3.231618 1.477633 -0.132021
v 3.231736 1.477633 -0.132021
v -2.324184 -1.681485 -0.132021
v 2.324303 -1.681485 -0.132021
v -2.207969 -1.543907 0.037120
v 2.208090 -1.543907 0.037120
v 3.070152 1.340051 0.037120
v -3.070034 1.340051 0.037120
v -3.648688 -0.101926 -0.149060
v 3.648807 -0.101926 -0.149060
v 3.466369 -0.101926 0.041911
v -3.466253 -0.101926 0.041911
v 0.000059 -1.526274 -0.149059
v 0.000059 1.681485 -0.149059
v 0.000058 1.526152 0.041911
v 0.000058 -1.370940 0.041911
v -2.293175 -1.644778 0.140540
v -2.324184 -1.681485 0.093945
v 0.000059 -1.479678 0.140540
v 0.000059 -1.526274 0.093945
v -3.192920 1.444684 0.140540
v -3.231618 1.477633 0.093945
v 0.000059 1.634890 0.140540
v 0.000059 1.681485 0.093945
v -3.600209 -0.101926 0.140540
v -3.648688 -0.101926 0.093945
v 2.324303 -1.681485 0.093945
v 2.293296 -1.644778 0.140540
v 3.600327 -0.101926 0.140540
v 3.648807 -0.101926 0.093945
v -2.207969 -1.543907 0.093945
v -2.239102 -1.580763 0.140540
v 0.000058 -1.417535 0.140540
v 0.000058 -1.370940 0.093945
v 2.239224 -1.580763 0.140540
v 2.208090 -1.543907 0.093945
v 3.466369 -0.101926 0.093945
v 3.515002 -0.101926 0.140540
v -3.070034 1.340051 0.093945
v -3.108999 1.373228 0.140540
v 0.000058 1.526152 0.093945
v 0.000058 1.572747 0.140540
v -3.514886 -0.101926 0.140540
v -3.466253 -0.101926 0.093945
v 3.193039 1.444684 0.140540
v 3.231736 1.477633 0.093945
v 3.070152 1.340051 0.093945
v 3.109118 1.373228 0.140540
vt 0.404306 0.913578
vt 0.141895 0.910491
vt 0.142149 0.891393
vt 0.404562 0.893608
vt 0.002174 0.863274
vt 0.210773 0.866446
vt 0.210541 0.889003
vt 0.001934 0.886246
vt 0.395132 0.890406
vt 0.395374 0.867416
vt 0.597644 0.899605
vt 0.597611 0.920725
vt 0.409921 0.921281
vt 0.409898 0.898264
vt 0.747532 0.771836
vt 0.960854 0.617366
vt 0.964609 0.623429
vt 0.747373 0.781872
vt 0.499205 0.782536
vt 0.505748 0.774802
vt 0.830856 0.818344
vt 0.493756 0.815964
vt 0.494164 0.809694
vt 0.823331 0.809416
vt 0.794276 0.878279
vt 0.952932 0.765360
vt 0.961040 0.767332
vt 0.799542 0.885260
vt 0.956669 0.610902
vt 0.746606 0.763700
vt 0.744413 0.757304
vt 0.952946 0.605810
vt 0.509639 0.767368
vt 0.509541 0.760694
vt 0.819257 0.802886
vt 0.494488 0.802480
vt 0.494505 0.796775
vt 0.817615 0.797340
vt 0.946858 0.762337
vt 0.790809 0.872030
vt 0.789193 0.866366
vt 0.943689 0.757863
vt 0.001936 0.938688
vt 0.001934 0.918637
vt 0.134637 0.918477
vt 0.134648 0.937427
vt 0.009524 0.908517
vt 0.009778 0.888621
vt 0.921780 0.687878
vt 0.929513 0.691130
vt 0.911281 0.681161
vt 0.915677 0.684672
vt 0.740964 0.730535
vt 0.625047 0.701439
vt 0.626149 0.697149
vt 0.739280 0.726136
vt 0.740939 0.746325
vt 0.619239 0.712643
vt 0.622601 0.706730
vt 0.741492 0.736851
vt 0.809373 0.898389
vt 0.809331 0.920824
vt 0.397540 0.918597
vt 0.397544 0.938614
vt 0.960285 0.575546
vt 0.963651 0.579578
vt 0.953389 0.566730
vt 0.956228 0.570533
vt 0.557911 0.871997
vt 0.557903 0.866181
vt 0.558821 0.885332
vt 0.558330 0.879003
vt 0.802964 0.891353
vt 0.967240 0.770492
vt 0.559173 0.892520
vt 0.968957 0.630053
vt 0.748333 0.789909
vt 0.741436 0.752453
vt 0.616724 0.717852
vt 0.967348 0.584107
vt 0.493388 0.823215
vt 0.834767 0.824590
vt 0.495286 0.790179
vt 0.935891 0.694430
vn 0.062954 0.998016 0.000000
vn 0.062954 0.998016 0.000000
vn 0.062954 0.998016 0.000000
vn 0.062954 0.998016 0.000000
vn -0.066631 -0.997778 0.000000
vn -0.066631 -0.997778 0.000000
vn -0.066631 -0.997778 0.000000
vn -0.066631 -0.997778 0.000000
vn 0.766260 -0.642530 0.000000
vn 0.766260 -0.642530 0.000000
vn 0.766260 -0.642530 0.000000
vn 0.766260 -0.642530 0.000000
vn -0.766260 -0.642531 0.000000
vn -0.766260 -0.642531 0.000000
vn -0.766260 -0.642530 0.000000
vn -0.766260 -0.642531 0.000000
vn 0.000000 0.000000 1.000000
vn 0.000000 0.000000 1.000000
vn 0.000000 0.000000 1.000000
vn 0.000000 0.000000 1.000000
vn -0.000000 -0.000000 1.000000
vn -0.000000 -0.000000 1.000000
vn -0.000000 -0.000000 1.000000
vn -0.000000 -0.000000 1.000000
vn 0.000000 -0.000000 1.000000
vn 0.000000 -0.000000 1.000000
vn 0.000000 -0.000000 1.000000
vn 0.000000 -0.000000 1.000000
vn 0.000000 -0.000000 1.000000
vn 0.000000 -0.000000 1.000000
vn 0.000000 -0.000000 1.000000
vn 0.000000 -0.000000 1.000000
vn 0.078096 0.996946 0.000000
vn 0.078096 0.996946 0.000000
vn 0.078096 0.996946 0.000000
vn 0.078096 0.996946 0.000000
vn -0.753470 0.657482 0.000000
vn -0.753471 0.657482 0.000000
vn -0.753470 0.657482 0.000000
vn -0.753471 0.657482 0.000000
vn -0.060506 -0.998168 0.000000
vn -0.060506 -0.998168 0.000000
vn -0.060506 -0.998168 0.000000
vn -0.060506 -0.998168 0.000000
vn 0.753469 0.657484 0.000000
vn 0.753469 0.657484 0.000000
vn 0.753469 0.657484 0.000000
vn 0.753469 0.657484 0.000000
vn -0.966864 0.255293 0.000000
vn -0.966864 0.255293 0.000000
vn -0.966864 0.255293 0.000000
vn -0.966864 0.255293 0.000000
vn 0.966864 0.255293 0.000000
vn 0.966864 0.255293 0.000000
vn 0.966864 0.255293 0.000000
vn 0.966864 0.255293 0.000000
vn -0.000000 0.000000 1.000000
vn -0.000000 0.000000 1.000000
vn -0.000000 0.000000 1.000000
vn -0.000000 0.000000 1.000000
vn -0.964261 -0.264953 0.000000
vn -0.964261 -0.264953 0.000000
vn -0.964261 -0.264953 0.000000
vn -0.964261 -0.264953 0.000000
vn 0.964261 -0.264955 0.000000
vn 0.964261 -0.264955 0.000000
vn 0.964261 -0.264955 0.000000
vn 0.964261 -0.264955 0.000000
vn 0.000000 0.000000 1.000000
vn 0.000000 0.000000 1.000000
vn 0.000000 0.000000 1.000000
vn 0.000000 0.000000 1.000000
vn 0.066631 -0.997778 0.000000
vn 0.066631 -0.997778 0.000000
vn 0.066631 -0.997778 0.000000
vn 0.066631 -0.997778 0.000000
vn -0.062954 0.998016 0.000000
vn -0.062954 0.998016 0.000000
vn -0.062954 0.998016 0.000000
vn -0.062954 0.998016 0.000000
vn -0.000000 -0.000000 1.000000
vn -0.000000 -0.000000 1.000000
vn -0.000000 -0.000000 1.000000
vn -0.000000 -0.000000 1.000000
vn 0.060506 -0.998168 0.000000
vn 0.060506 -0.998168 0.000000
vn 0.060506 -0.998168 0.000000
vn 0.060506 -0.998168 0.000000
vn -0.078096 0.996946 0.000000
vn -0.078096 0.996946 0.000000
vn -0.078096 0.996946 0.000000
vn -0.078096 0.996946 0.000000
vn -0.000000 0.000000 1.000000
vn -0.000000 0.000000 1.000000
vn -0.000000 0.000000 1.000000
vn -0.000000 0.000000 1.000000
vn -0.566650 -0.477567 0.671444
vn -0.566650 -0.477567 0.671444
vn -0.566650 -0.477567 0.671444
vn -0.566650 -0.477567 0.671444
vn 0.052243 -0.753110 0.655818
vn 0.052243 -0.753110 0.655817
vn 0.000000 -0.754140 0.656714
vn -0.000000 -0.754140 0.656714
vn -0.052243 -0.753110 0.655817
vn -0.052243 -0.753110 0.655817
vn -0.685548 0.180776 0.705227
vn -0.685548 0.180776 0.705226
vn -0.685548 0.180776 0.705227
vn -0.685547 0.180776 0.705227
vn -0.046018 0.750275 0.659522
vn -0.046018 0.750275 0.659522
vn 0.000000 0.751071 0.660221
vn 0.000000 0.751072 0.660221
vn 0.046018 0.750276 0.659521
vn 0.046018 0.750276 0.659521
vn 0.566652 -0.477569 0.671441
vn 0.566652 -0.477569 0.671441
vn 0.566652 -0.477569 0.671441
vn 0.566652 -0.477569 0.671441
vn 0.685549 0.180777 0.705225
vn 0.685549 0.180777 0.705225
vn 0.685549 0.180777 0.705225
vn 0.685549 0.180777 0.705225
vn 0.559852 0.485722 0.671297
vn 0.559852 0.485722 0.671297
vn 0.559852 0.485721 0.671297
vn 0.559852 0.485722 0.671297
vn -0.056935 0.753130 0.655403
vn -0.056935 0.753130 0.655403
vn 0.000000 0.754354 0.656468
vn 0.000000 0.754354 0.656468
vn 0.056935 0.753130 0.655403
vn 0.056935 0.753130 0.655403
vn -0.559850 0.485717 0.671302
vn -0.559850 0.485717 0.671302
vn -0.559850 0.485717 0.671302
vn -0.559850 0.485718 0.671302
vn -0.681551 -0.187401 0.707368
vn -0.681551 -0.187401 0.707368
vn -0.681551 -0.187401 0.707368
vn -0.681551 -0.187401 0.707368
vn 0.681553 -0.187403 0.707365
vn 0.681554 -0.187403 0.707365
vn 0.681554 -0.187403 0.707365
vn 0.681554 -0.187403 0.707365
vn 0.046749 -0.749109 0.660795
vn 0.046749 -0.749109 0.660795
vn -0.000000 -0.749929 0.661519
vn -0.000000 -0.749929 0.661519
vn -0.046749 -0.749108 0.660796
vn -0.046749 -0.749108 0.660796
s off
g popup_info_frame
usemtl lambert2SG
f 33/10/17 55/11/18 11/12/19 23/13/20
f 22/14/21 13/15/22 36/16/23 29/17/24
f 39/18/25 36/16/26 13/15/27 19/19/28
f 12/20/29 27/21/30 35/22/31 18/23/32
f 44/24/33 42/25/34 28/26/35 37/27/36
f 37/27/37 38/28/38 47/29/39 44/24/40
f 54/30/41 32/31/42 51/32/43 57/33/44
f 41/34/45 52/35/46 34/36/47 26/37/48
f 43/38/49 45/39/50 15/40/51 25/41/52
f 45/39/53 46/42/54 20/43/55 15/40/56
f 56/44/57 50/45/58 24/46/59 16/47/60
f 53/48/61 40/49/62 14/50/63 21/51/64
f 18/52/65 35/53/66 31/54/67 10/55/68
f 55/11/69 39/56/70 19/57/71 11/12/72
f 57/33/73 47/58/74 38/59/75 54/30/76
f 20/60/77 46/61/78 56/44/79 16/47/80
f 48/62/81 53/63/82 21/64/83 17/65/84
f 30/66/85 34/67/86 52/68/87 49/69/88
f 12/20/89 22/70/90 29/71/91 27/21/92
f 31/54/93 33/72/94 23/73/95 10/55/96
f 49/69/97 51/74/98 32/75/99 30/66/100
f 24/76/101 50/77/102 48/62/103 17/65/104
f 40/49/105 43/78/106 25/79/107 14/50/108
f 26/37/109 28/80/110 42/81/111 41/34/112
f 27/82/113 26/37/114 34/36/115 35/83/116
s 1
f 26/37/117 27/82/118 29/84/119 28/80/120
f 28/26/120 29/85/119 36/86/121 37/27/122
s off
f 30/66/123 31/87/124 35/88/125 34/67/126
s 2
f 31/87/127 30/66/128 32/75/129 33/89/130
f 33/90/130 32/31/129 54/30/131 55/91/132
s off
f 37/27/133 36/86/134 39/92/135 38/28/136
f 38/59/137 39/93/138 55/91/139 54/30/140
f 41/34/141 40/49/142 53/48/143 52/35/144
s 3
f 40/49/145 41/34/146 42/81/147 43/78/148
f 43/38/148 42/25/147 44/24/149 45/39/150
s off
f 45/39/151 44/24/152 47/29/153 46/42/154
f 46/61/155 47/58/156 57/33/157 56/44/158
f 48/62/159 49/69/160 52/68/161 53/63/162
s 4
f 49/69/163 48/62/164 50/77/165 51/74/166
f 51/32/166 50/45/165 56/44/167 57/33/168
