# This file uses centimeters as units for non-parametric coordinates.

mtllib magnet.mtl
g default
v -5.960230 3.794249 1.395386
v -6.080153 3.667893 1.395386
v -6.120560 3.667895 3.173663
v -6.002819 3.794249 3.173663
v -3.533108 3.667891 1.395386
v -3.651757 3.794249 1.395386
v -3.691254 3.794249 3.173663
v -3.573513 3.667895 3.173663
v -6.080153 0.126356 1.395386
v -5.960284 0.000000 1.395386
v -6.002819 0.000000 3.173664
v -6.120559 0.126354 3.173664
v -3.651734 0.000000 1.395386
v -3.533108 0.126357 1.395386
v -3.573514 0.126354 3.173664
v -3.691254 0.000000 3.173664
v -5.220525 0.091656 -2.029016
v -5.103653 -0.034689 -1.969870
v -3.029622 -0.034689 -0.856577
v -2.913216 0.091657 -0.790506
v -3.035979 3.828938 -0.750297
v -2.919118 3.702593 -0.691156
v -5.109934 3.828938 -1.863550
v -5.226427 3.702593 -1.929668
v -2.816564 0.000000 -4.126157
v -2.873446 0.126332 -4.236495
v 1.143793 0.126354 -4.995792
v 1.143215 0.000000 -4.869433
v -1.631870 0.126334 -1.799766
v -1.690070 0.000000 -1.915288
v 1.132419 0.000000 -2.506250
v 1.131841 0.126354 -2.379876
v 8.903645 0.126355 -3.434436
v 8.892752 0.000001 -3.306883
v 9.017363 0.126355 -3.277550
v 8.720215 0.000001 -0.839482
v 8.713854 0.126355 -0.709945
v 8.844221 0.126355 -0.801498
v -1.674816 3.794249 -1.846304
v -1.617742 3.667909 -1.735590
v 1.131842 3.667895 -2.379876
v 1.132419 3.794249 -2.506233
v 8.713856 3.667896 -0.709945
v 8.720217 3.794250 -0.839482
v 8.844223 3.667896 -0.801498
v -2.859317 3.667911 -4.172320
v -2.801443 3.794249 -4.057435
v 1.143793 3.667895 -4.995792
v 1.143216 3.794249 -4.869418
v 8.892754 3.794250 -3.306882
v 8.903646 3.667896 -3.434435
v 9.017365 3.667896 -3.277549
v 5.517530 3.667896 -4.286676
v 5.514027 3.794250 -4.158478
v 5.448658 3.794250 -1.766119
v 5.445142 3.667896 -1.637488
v 5.445141 0.126354 -1.637488
v 5.448656 0.000001 -1.766119
v 5.514026 0.000001 -4.158478
v 5.517529 0.126354 -4.286676
v -2.418540 3.810626 -1.441029
v -4.045445 3.810626 -3.216175
v -4.133792 3.684285 -3.312375
v -4.138895 0.109961 -3.396039
v -4.050923 -0.016377 -3.305733
v -2.424056 -0.016377 -1.530716
v -2.335569 0.109962 -1.434180
v -2.330467 3.684284 -1.350516
v -3.541624 3.811641 0.250864
v -5.770477 3.811641 -0.282115
v -5.890455 3.685290 -0.313770
v -5.887630 0.108959 -0.361334
v -5.767500 -0.017392 -0.333017
v -3.538568 -0.017392 0.199982
v -3.419327 0.108959 0.231613
v -3.422153 3.685289 0.279178
v -0.885835 3.794249 -4.666080
v -0.331866 3.794249 -2.378395
v -0.303818 3.667902 -2.259806
v -0.310833 0.126344 -2.291671
v -0.339440 0.000000 -2.412657
v -0.893343 0.000000 -4.700210
v -0.921296 0.126343 -4.818614
v -0.914281 3.667903 -4.786750
v -5.960230 3.794249 4.951941
v -6.080153 3.667893 4.951941
v -3.533108 3.667891 4.951941
v -3.651757 3.794249 4.951941
v -6.080153 0.126356 4.951941
v -5.960284 0.000000 4.951941
v -3.651734 0.000000 4.951941
v -3.533108 0.126357 4.951941
v -5.220525 0.091656 8.376344
v -5.103653 -0.034689 8.317197
v -3.029622 -0.034689 7.203905
v -2.913216 0.091657 7.137834
v -3.035979 3.828938 7.097624
v -2.919118 3.702593 7.038484
v -5.109934 3.828938 8.210877
v -5.226427 3.702593 8.276996
v -2.816564 0.000000 10.473485
v -2.873446 0.126332 10.583823
v 1.143793 0.126354 11.343120
v 1.143215 0.000000 11.216761
v -1.631870 0.126334 8.147094
v -1.690070 0.000000 8.262616
v 1.132419 0.000000 8.853578
v 1.131841 0.126354 8.727203
v 8.903645 0.126355 9.781764
v 8.892752 0.000001 9.654211
v 9.017363 0.126355 9.624878
v 8.720215 0.000001 7.186809
v 8.713854 0.126355 7.057272
v 8.844221 0.126355 7.148825
v -1.674816 3.794249 8.193632
v -1.617742 3.667909 8.082918
v 1.131842 3.667895 8.727203
v 1.132419 3.794249 8.853560
v 8.713856 3.667896 7.057272
v 8.720217 3.794250 7.186809
v 8.844223 3.667896 7.148825
v -2.859317 3.667911 10.519648
v -2.801443 3.794249 10.404762
v 1.143793 3.667895 11.343120
v 1.143216 3.794249 11.216745
v 8.892754 3.794250 9.654210
v 8.903646 3.667896 9.781763
v 9.017365 3.667896 9.624877
v 5.517530 3.667896 10.634004
v 5.514027 3.794250 10.505806
v 5.448658 3.794250 8.113447
v 5.445142 3.667896 7.984815
v 5.445141 0.126354 7.984815
v 5.448656 0.000001 8.113447
v 5.514026 0.000001 10.505806
v 5.517529 0.126354 10.634004
v -2.418540 3.810626 7.788356
v -4.045445 3.810626 9.563502
v -4.133792 3.684285 9.659702
v -4.138895 0.109961 9.743366
v -4.050923 -0.016377 9.653061
v -2.424056 -0.016377 7.878043
v -2.335569 0.109962 7.781507
v -2.330467 3.684284 7.697843
v -3.541624 3.811641 6.096463
v -5.770477 3.811641 6.629442
v -5.890455 3.685290 6.661098
v -5.887630 0.108959 6.708661
v -5.767500 -0.017392 6.680345
v -3.538568 -0.017392 6.147346
v -3.419327 0.108959 6.115714
v -3.422153 3.685289 6.068149
v -0.885835 3.794249 11.013408
v -0.331866 3.794249 8.725722
v -0.303818 3.667902 8.607133
v -0.310833 0.126344 8.638998
v -0.339440 0.000000 8.759984
v -0.893343 0.000000 11.047538
v -0.921296 0.126343 11.165942
v -0.914281 3.667903 11.134078
vt 0.604131 0.280510
vt 0.530327 0.280681
vt 0.529121 0.223567
vt 0.602830 0.223931
vt 0.015072 0.398841
vt 0.088739 0.396231
vt 0.089272 0.453356
vt 0.015497 0.455432
vt 0.764193 0.618753
vt 0.877243 0.616980
vt 0.878126 0.673767
vt 0.765076 0.675525
vt 0.635306 0.037502
vt 0.748367 0.038328
vt 0.747951 0.095121
vt 0.634890 0.094279
vt 0.037404 0.290761
vt 0.105521 0.322575
vt 0.090925 0.357533
vt 0.019008 0.343720
vt 0.761948 0.545062
vt 0.877265 0.546244
vt 0.877232 0.581150
vt 0.763047 0.581451
vt 0.510262 0.153844
vt 0.577371 0.119974
vt 0.597297 0.170583
vt 0.525833 0.186577
vt 0.748246 0.205834
vt 0.632944 0.207993
vt 0.633908 0.150676
vt 0.748091 0.150039
vt 0.164755 0.194483
vt 0.188444 0.265824
vt 0.146442 0.285279
vt 0.105273 0.217584
vt 0.762499 0.447172
vt 0.875567 0.446978
vt 0.875707 0.492152
vt 0.762622 0.492155
vt 0.425285 0.097400
vt 0.446752 0.025354
vt 0.506633 0.047684
vt 0.467573 0.116628
vt 0.747340 0.376371
vt 0.634274 0.377094
vt 0.633882 0.312091
vt 0.746963 0.311227
vt 0.239334 0.105273
vt 0.242155 0.028906
vt 0.382689 0.015204
vt 0.378543 0.090551
vt 0.762381 0.261333
vt 0.875445 0.261235
vt 0.875545 0.400975
vt 0.762481 0.401045
vt 0.369706 0.192793
vt 0.374865 0.269039
vt 0.235279 0.258591
vt 0.228812 0.183408
vt 0.748779 0.583910
vt 0.635717 0.584660
vt 0.634759 0.443231
vt 0.747819 0.442436
vt 0.876358 0.518025
vt 0.762218 0.517457
vt 0.123710 0.299543
vt 0.068111 0.246378
vt 0.633302 0.263620
vt 0.747434 0.262117
vt 0.544956 0.075997
vt 0.491015 0.130847
vt 0.479419 0.209624
vt 0.481525 0.288100
vt 0.762267 0.147812
vt 0.762136 0.068581
vt 0.875200 0.068394
vt 0.875331 0.147643
vt 0.749501 0.695390
vt 0.636440 0.696123
vt 0.762272 0.152879
vt 0.875336 0.152745
vt 0.133307 0.127590
vt 0.133008 0.049085
vt 0.582552 0.117170
vt 0.602804 0.169249
vt 0.608406 0.223849
vt 0.609652 0.280498
vt 0.520331 0.187953
vt 0.505094 0.156520
vt 0.524814 0.280694
vt 0.523591 0.223695
vt 0.013455 0.342667
vt 0.032114 0.288332
vt 0.009978 0.455587
vt 0.009501 0.398930
vt 0.110750 0.325287
vt 0.096457 0.358824
vt 0.094271 0.396185
vt 0.094782 0.453200
vt 0.063925 0.242494
vt 0.102377 0.212714
vt 0.149392 0.290238
vt 0.127902 0.303615
vt 0.486935 0.134880
vt 0.464775 0.121548
vt 0.509414 0.042630
vt 0.549016 0.071835
vt 0.163097 0.189122
vt 0.228398 0.177714
vt 0.369690 0.187043
vt 0.190154 0.271235
vt 0.374979 0.274809
vt 0.235680 0.264286
vt 0.480342 0.204210
vt 0.484923 0.209479
vt 0.486820 0.289575
vt 0.762126 0.062394
vt 0.875190 0.062208
vt 0.482296 0.293529
vt 0.423721 0.102795
vt 0.378298 0.096258
vt 0.239396 0.111042
vt 0.132702 0.133040
vt 0.128061 0.129227
vt 0.127504 0.049110
vt 0.448285 0.019903
vt 0.241994 0.023156
vt 0.382939 0.009501
vt 0.131920 0.043702
vt 0.603089 0.337093
vt 0.529383 0.337799
vt 0.018255 0.511957
vt 0.091951 0.510420
vt 0.880685 0.876111
vt 0.937449 0.877468
vt 0.934746 0.990499
vt 0.877970 0.989142
vt 0.294899 0.735413
vt 0.351677 0.735463
vt 0.351598 0.848526
vt 0.294803 0.848477
vt 0.046631 0.618609
vt 0.025284 0.566769
vt 0.096311 0.548933
vt 0.112851 0.583013
vt 0.807013 0.873256
vt 0.843391 0.874655
vt 0.842145 0.988834
vt 0.807240 0.988579
vt 0.510847 0.407611
vt 0.526265 0.374806
vt 0.597803 0.390468
vt 0.578114 0.441169
vt 0.462317 0.849715
vt 0.406519 0.849115
vt 0.408075 0.734940
vt 0.465389 0.734433
vt 0.179195 0.707566
vt 0.118510 0.687849
vt 0.155806 0.617946
vt 0.198838 0.635005
vt 0.709123 0.872997
vt 0.754104 0.873493
vt 0.753166 0.986573
vt 0.707996 0.986060
vt 0.426139 0.464461
vt 0.468334 0.445032
vt 0.507716 0.513792
vt 0.447941 0.536406
vt 0.632869 0.850134
vt 0.567725 0.849257
vt 0.569462 0.736187
vt 0.634453 0.737077
vt 0.240156 0.457444
vt 0.379429 0.471528
vt 0.383924 0.546857
vt 0.243328 0.533798
vt 0.523301 0.871317
vt 0.663005 0.872596
vt 0.661990 0.985654
vt 0.522255 0.984376
vt 0.383917 0.697742
vt 0.243773 0.715023
vt 0.246007 0.639596
vt 0.384788 0.621327
vt 0.840404 0.853128
vt 0.698934 0.851113
vt 0.700579 0.738062
vt 0.841986 0.740076
vt 0.779409 0.873298
vt 0.779030 0.987439
vt 0.079787 0.661192
vt 0.132307 0.604986
vt 0.518609 0.849346
vt 0.521005 0.735229
vt 0.491709 0.430701
vt 0.545905 0.485298
vt 0.490212 0.596313
vt 0.492512 0.674785
vt 0.409766 0.870254
vt 0.408684 0.983313
vt 0.329442 0.982549
vt 0.330533 0.869490
vt 0.953430 0.741607
vt 0.951885 0.854661
vt 0.413777 0.983361
vt 0.414842 0.870302
vt 0.134090 0.514119
vt 0.134027 0.435613
vt 0.603316 0.391776
vt 0.583307 0.443949
vt 0.608665 0.337150
vt 0.520757 0.373456
vt 0.505668 0.404961
vt 0.523852 0.337697
vt 0.019799 0.568132
vt 0.041486 0.621332
vt 0.012686 0.512182
vt 0.101761 0.547333
vt 0.117919 0.580012
vt 0.097478 0.510154
vt 0.075826 0.665306
vt 0.115892 0.692875
vt 0.136264 0.600684
vt 0.158472 0.612829
vt 0.487609 0.426687
vt 0.465513 0.440125
vt 0.549985 0.489442
vt 0.510520 0.518834
vt 0.177841 0.713010
vt 0.243681 0.720731
vt 0.384225 0.703485
vt 0.200242 0.629508
vt 0.246087 0.633886
vt 0.384578 0.615560
vt 0.493737 0.680139
vt 0.498015 0.674621
vt 0.495414 0.594544
vt 0.959611 0.741691
vt 0.958074 0.854745
vt 0.490677 0.590851
vt 0.424550 0.459073
vt 0.379159 0.465824
vt 0.240191 0.451673
vt 0.133397 0.430168
vt 0.128773 0.434002
vt 0.128585 0.514121
vt 0.449499 0.541851
vt 0.384202 0.552559
vt 0.243194 0.539548
vt 0.133027 0.519507
vn 0.000000 1.000000 0.000000
vn 0.000000 1.000000 0.000000
vn 0.000000 1.000000 0.000000
vn 0.000000 1.000000 0.000000
vn 0.000000 -1.000000 0.000000
vn 0.000000 -1.000000 0.000000
vn 0.000000 -1.000000 0.000000
vn 0.000000 -1.000000 0.000000
vn 0.999742 0.000000 0.022716
vn 0.999742 0.000000 0.022716
vn 0.999742 0.000000 0.022716
vn 0.999742 0.000000 0.022716
vn -0.999742 0.000000 -0.022716
vn -0.999742 0.000000 -0.022716
vn -0.999742 0.000000 -0.022716
vn -0.999742 0.000000 -0.022716
vn 0.001745 -0.999998 0.000777
vn 0.002264 -0.999997 -0.000114
vn -0.002831 -0.999931 0.011371
vn -0.002788 -0.999931 0.011382
vn 0.833565 -0.012154 0.552288
vn 0.835690 -0.012023 0.549070
vn 0.960378 -0.004256 0.278667
vn 0.959546 -0.004319 0.281519
vn 0.002320 0.999997 -0.000172
vn 0.001746 0.999998 0.000823
vn -0.002884 0.999926 0.011801
vn -0.002943 0.999926 0.011786
vn -0.865736 0.011147 -0.500377
vn -0.863504 0.011290 -0.504216
vn -0.968590 0.003565 -0.248637
vn -0.969150 0.003513 -0.246445
vn 0.000000 -1.000000 0.000000
vn 0.000000 -1.000000 0.000000
vn 0.000000 -1.000000 0.000000
vn 0.000000 -1.000000 0.000000
vn 0.216797 -0.009192 0.976173
vn 0.216803 -0.009193 0.976172
vn 0.359770 -0.013724 0.932940
vn 0.359770 -0.013724 0.932940
vn 0.000000 1.000000 0.000000
vn 0.000000 1.000000 0.000000
vn 0.000000 1.000000 0.000000
vn 0.000000 1.000000 0.000000
vn -0.193595 0.009216 -0.981038
vn -0.193619 0.009217 -0.981034
vn -0.293479 0.013837 -0.955866
vn -0.293479 0.013837 -0.955866
vn 0.000000 1.000000 0.000000
vn 0.000000 1.000000 0.000000
vn 0.000000 1.000000 0.000000
vn 0.000000 1.000000 0.000000
vn -0.215094 0.000000 0.976593
vn -0.215094 0.000000 0.976593
vn -0.110275 -0.001136 0.993900
vn -0.110275 -0.001136 0.993900
vn 0.000000 -1.000000 0.000000
vn 0.000000 -1.000000 0.000000
vn 0.000000 -1.000000 0.000000
vn 0.000000 -1.000000 0.000000
vn 0.197256 0.000000 -0.980352
vn 0.197256 0.000000 -0.980352
vn 0.079927 0.001466 -0.996800
vn 0.079927 0.001466 -0.996800
vn 0.625924 -0.018452 0.779665
vn 0.623657 -0.018475 0.781480
vn 0.010173 -0.999902 -0.009579
vn 0.010106 -0.999902 -0.009645
vn -0.686607 0.017338 -0.726822
vn -0.688711 0.017309 -0.724829
vn 0.009948 0.999906 -0.009485
vn 0.010001 0.999906 -0.009432
vn 0.000000 -1.000000 0.000000
vn 0.000000 -1.000000 0.000000
vn 0.997564 -0.000001 0.069756
vn 0.997564 -0.000001 0.069756
vn 0.997564 -0.000001 0.069756
vn 0.997564 -0.000001 0.069756
vn 0.244075 0.000000 -0.969756
vn 0.244075 0.000000 -0.969756
vn -0.272986 0.000000 0.962018
vn -0.272986 0.000000 0.962018
vn 0.000000 1.000000 0.000000
vn 0.000000 1.000000 0.000000
vn 0.000000 1.000000 0.000000
vn 0.000000 1.000000 0.000000
vn 0.000000 -1.000000 0.000000
vn 0.000000 -1.000000 0.000000
vn 0.999742 0.000000 -0.022716
vn 0.999742 0.000000 -0.022716
vn -0.999742 0.000000 0.022716
vn -0.999742 0.000000 0.022716
vn 0.001745 -0.999998 -0.000777
vn -0.002788 -0.999931 -0.011382
vn -0.002831 -0.999931 -0.011371
vn 0.002264 -0.999997 0.000114
vn 0.833565 -0.012154 -0.552288
vn 0.959546 -0.004319 -0.281519
vn 0.960378 -0.004256 -0.278667
vn 0.835690 -0.012023 -0.549070
vn 0.002320 0.999997 0.000173
vn -0.002943 0.999926 -0.011786
vn -0.002884 0.999926 -0.011801
vn 0.001746 0.999998 -0.000823
vn -0.865736 0.011147 0.500377
vn -0.969150 0.003513 0.246445
vn -0.968590 0.003565 0.248637
vn -0.863504 0.011290 0.504216
vn 0.000000 -1.000000 0.000000
vn 0.000000 -1.000000 0.000000
vn 0.000000 -1.000000 0.000000
vn 0.000000 -1.000000 0.000000
vn 0.216797 -0.009192 -0.976173
vn 0.359770 -0.013724 -0.932940
vn 0.359770 -0.013724 -0.932940
vn 0.216803 -0.009193 -0.976172
vn -0.000000 1.000000 -0.000000
vn -0.000000 1.000000 -0.000000
vn -0.000000 1.000000 -0.000000
vn -0.000000 1.000000 -0.000000
vn -0.193595 0.009216 0.981038
vn -0.293478 0.013837 0.955866
vn -0.293479 0.013837 0.955866
vn -0.193619 0.009217 0.981034
vn 0.000000 1.000000 0.000000
vn 0.000000 1.000000 0.000000
vn 0.000000 1.000000 0.000000
vn 0.000000 1.000000 0.000000
vn -0.215094 0.000000 -0.976593
vn -0.110275 -0.001136 -0.993901
vn -0.110275 -0.001136 -0.993900
vn -0.215094 0.000000 -0.976593
vn 0.000000 -1.000000 0.000000
vn 0.000000 -1.000000 0.000000
vn 0.000000 -1.000000 0.000000
vn 0.000000 -1.000000 0.000000
vn 0.197256 -0.000000 0.980352
vn 0.079927 0.001466 0.996800
vn 0.079926 0.001466 0.996800
vn 0.197256 -0.000000 0.980352
vn 0.623657 -0.018475 -0.781480
vn 0.625924 -0.018452 -0.779666
vn 0.010106 -0.999902 0.009645
vn 0.010173 -0.999902 0.009579
vn -0.688711 0.017309 0.724829
vn -0.686607 0.017338 0.726822
vn 0.010001 0.999906 0.009432
vn 0.009948 0.999906 0.009485
vn 0.000000 -1.000000 0.000000
vn 0.000000 -1.000000 0.000000
vn 0.997564 -0.000001 -0.069756
vn 0.997564 -0.000001 -0.069756
vn 0.997564 -0.000001 -0.069756
vn 0.997564 -0.000001 -0.069756
vn 0.244075 0.000000 0.969756
vn 0.244075 0.000000 0.969756
vn -0.272986 0.000000 -0.962018
vn -0.272986 0.000000 -0.962018
vn 0.000000 1.000000 0.000000
vn 0.000000 1.000000 0.000000
s 1
g magnet:polySurface1
usemtl magnet:initialShadingGroup
f 4/1/1 7/2/2 6/3/3 1/4/4
f 10/5/5 13/6/6 16/7/7 11/8/8
f 14/9/9 5/10/10 8/11/11 15/12/12
f 12/13/13 3/14/14 2/15/15 9/16/16
f 18/17/17 19/18/18 74/19/19 73/20/20
f 20/21/21 22/22/22 76/23/23 75/24/24
f 21/25/25 23/26/26 70/27/27 69/28/28
f 24/29/29 17/30/30 72/31/31 71/32/32
f 82/33/33 81/34/34 30/35/35 25/36/36
f 80/37/37 79/38/38 40/39/39 29/40/40
f 78/41/41 77/42/42 47/43/43 39/44/44
f 84/45/45 83/46/46 26/47/47 46/48/48
f 55/49/49 54/50/50 49/51/51 42/52/52
f 57/53/53 56/54/54 41/55/55 32/56/56
f 59/57/57 58/58/58 31/59/59 28/60/60
f 53/61/61 60/62/62 27/63/63 48/64/64
f 29/40/40 40/39/39 68/65/65 67/66/66
f 25/36/36 30/35/35 66/67/67 65/68/68
f 46/48/48 26/47/47 64/69/69 63/70/70
f 39/44/44 47/43/43 62/71/71 61/72/72
f 58/58/58 59/57/57 34/73/73 36/74/74
f 38/75/75 35/76/76 52/77/77 45/78/78
f 60/62/62 53/61/61 51/79/79 33/80/80
f 56/54/54 57/53/53 37/81/81 43/82/82
f 54/50/50 55/49/49 44/83/83 50/84/84
f 70/27/27 23/26/26 24/85/29 71/86/32
f 2/87/15 3/88/14 4/1/1 1/4/4
f 76/89/23 22/90/22 21/25/25 69/28/28
f 6/3/3 7/2/2 8/91/11 5/92/10
f 72/93/31 17/94/30 18/17/17 73/20/20
f 10/5/5 11/8/8 12/95/13 9/96/16
f 74/19/19 19/18/18 20/97/21 75/98/24
f 14/99/9 15/100/12 16/7/7 13/6/6
f 64/101/69 26/102/47 25/36/36 65/68/68
f 66/67/67 30/35/35 29/103/40 67/104/66
f 68/105/65 40/106/39 39/44/44 61/72/72
f 62/71/71 47/43/43 46/107/48 63/108/70
f 26/102/47 83/109/46 82/33/33 25/36/36
f 27/110/63 60/111/62 59/57/57 28/60/60
f 30/35/35 81/34/34 80/112/37 29/103/40
f 31/59/59 58/58/58 57/113/53 32/114/56
f 34/73/73 59/57/57 60/111/62 33/115/80
f 35/116/76 38/117/75 36/74/74 34/73/73
f 33/118/80 51/119/79 52/77/77 35/76/76
f 37/120/81 57/113/53 58/58/58 36/74/74
f 38/75/75 45/78/78 43/82/82 37/81/81
f 40/106/39 79/121/38 78/41/41 39/44/44
f 41/122/55 56/123/54 55/49/49 42/52/52
f 44/83/83 55/49/49 56/123/54 43/124/82
f 45/125/78 52/126/77 50/84/84 44/83/83
f 47/43/43 77/42/42 84/127/45 46/107/48
f 49/51/51 54/50/50 53/128/61 48/129/64
f 51/130/79 53/128/61 54/50/50 50/84/84
f 33/115/80 35/116/76 34/73/73
f 36/74/74 38/117/75 37/120/81
f 43/124/82 45/125/78 44/83/83
f 50/84/84 52/126/77 51/130/79
f 61/72/72 62/71/71 23/26/26 21/25/25
f 23/26/26 62/71/71 63/108/70 24/85/29
f 64/69/69 17/30/30 24/29/29 63/70/70
f 17/94/30 64/101/69 65/68/68 18/17/17
f 66/67/67 19/18/18 18/17/17 65/68/68
f 19/18/18 66/67/67 67/104/66 20/97/21
f 68/65/65 22/22/22 20/21/21 67/66/66
f 22/90/22 68/105/65 61/72/72 21/25/25
f 69/28/28 70/27/27 1/4/4 6/3/3
f 1/4/4 70/27/27 71/86/32 2/87/15
f 72/31/31 9/16/16 2/15/15 71/32/32
f 9/96/16 72/93/31 73/20/20 10/5/5
f 74/19/19 13/6/6 10/5/5 73/20/20
f 13/6/6 74/19/19 75/98/24 14/99/9
f 76/23/23 5/10/10 14/9/9 75/24/24
f 5/92/10 76/89/23 69/28/28 6/3/3
f 42/52/52 49/51/51 77/42/42 78/41/41
f 79/121/38 41/122/55 42/52/52 78/41/41
f 32/56/56 41/55/55 79/38/38 80/37/37
f 81/34/34 31/59/59 32/114/56 80/112/37
f 28/60/60 31/59/59 81/34/34 82/33/33
f 83/109/46 27/110/63 28/60/60 82/33/33
f 48/64/64 27/63/63 83/46/46 84/45/45
f 77/42/42 49/51/51 48/129/64 84/127/45
f 4/1/1 85/131/85 88/132/86 7/2/2
f 90/133/87 11/8/8 16/7/7 91/134/88
f 92/135/89 15/136/12 8/137/11 87/138/90
f 12/139/13 89/140/91 86/141/92 3/142/14
f 94/143/93 149/144/94 150/145/95 95/146/96
f 96/147/97 151/148/98 152/149/99 98/150/100
f 97/151/101 145/152/102 146/153/103 99/154/104
f 100/155/105 147/156/106 148/157/107 93/158/108
f 158/159/109 101/160/110 106/161/111 157/162/112
f 156/163/113 105/164/114 116/165/115 155/166/116
f 154/167/117 115/168/118 123/169/119 153/170/120
f 160/171/121 122/172/122 102/173/123 159/174/124
f 131/175/125 118/176/126 125/177/127 130/178/128
f 133/179/129 108/180/130 117/181/131 132/182/132
f 135/183/133 104/184/134 107/185/135 134/186/136
f 129/187/137 124/188/138 103/189/139 136/190/140
f 105/164/114 143/191/141 144/192/142 116/165/115
f 101/160/110 141/193/143 142/194/144 106/161/111
f 122/172/122 139/195/145 140/196/146 102/173/123
f 115/168/118 137/197/147 138/198/148 123/169/119
f 134/186/136 112/199/149 110/200/150 135/183/133
f 114/201/151 121/202/152 128/203/153 111/204/154
f 136/190/140 109/205/155 127/206/156 129/187/137
f 132/182/132 119/207/157 113/208/158 133/179/129
f 130/178/128 126/209/159 120/210/160 131/175/125
f 146/153/103 147/211/106 100/212/105 99/154/104
f 86/213/92 85/131/85 4/1/1 3/88/14
f 152/214/99 145/152/102 97/151/101 98/215/100
f 88/132/86 87/216/90 8/91/11 7/2/2
f 148/217/107 149/144/94 94/143/93 93/218/108
f 90/133/87 89/219/91 12/95/13 11/8/8
f 150/145/95 151/220/98 96/221/97 95/146/96
f 92/222/89 91/134/88 16/7/7 15/100/12
f 140/223/146 141/193/143 101/160/110 102/224/123
f 142/194/144 143/225/141 105/226/114 106/161/111
f 144/227/142 137/197/147 115/168/118 116/228/115
f 138/198/148 139/229/145 122/230/122 123/169/119
f 102/224/123 101/160/110 158/159/109 159/231/124
f 103/232/139 104/184/134 135/183/133 136/233/140
f 106/161/111 105/226/114 156/234/113 157/162/112
f 107/185/135 108/235/130 133/236/129 134/186/136
f 110/200/150 109/237/155 136/233/140 135/183/133
f 111/238/154 110/200/150 112/199/149 114/239/151
f 109/205/155 111/240/154 128/241/153 127/206/156
f 113/242/158 112/199/149 134/186/136 133/236/129
f 114/201/151 113/208/158 119/207/157 121/202/152
f 116/228/115 115/168/118 154/167/117 155/243/116
f 117/244/131 118/176/126 131/175/125 132/245/132
f 120/210/160 119/246/157 132/245/132 131/175/125
f 121/247/152 120/210/160 126/209/159 128/248/153
f 123/169/119 122/230/122 160/249/121 153/170/120
f 125/177/127 124/250/138 129/251/137 130/178/128
f 127/252/156 126/209/159 130/178/128 129/251/137
f 109/237/155 110/200/150 111/238/154
f 112/199/149 113/242/158 114/239/151
f 119/246/157 120/210/160 121/247/152
f 126/209/159 127/252/156 128/248/153
f 137/197/147 97/151/101 99/154/104 138/198/148
f 99/154/104 100/212/105 139/229/145 138/198/148
f 140/196/146 139/195/145 100/155/105 93/158/108
f 93/218/108 94/143/93 141/193/143 140/223/146
f 142/194/144 141/193/143 94/143/93 95/146/96
f 95/146/96 96/221/97 143/225/141 142/194/144
f 144/192/142 143/191/141 96/147/97 98/150/100
f 98/215/100 97/151/101 137/197/147 144/227/142
f 145/152/102 88/132/86 85/131/85 146/153/103
f 85/131/85 86/213/92 147/211/106 146/153/103
f 148/157/107 147/156/106 86/141/92 89/140/91
f 89/219/91 90/133/87 149/144/94 148/217/107
f 150/145/95 149/144/94 90/133/87 91/134/88
f 91/134/88 92/222/89 151/220/98 150/145/95
f 152/149/99 151/148/98 92/135/89 87/138/90
f 87/216/90 88/132/86 145/152/102 152/214/99
f 118/176/126 154/167/117 153/170/120 125/177/127
f 155/243/116 154/167/117 118/176/126 117/244/131
f 108/180/130 156/163/113 155/166/116 117/181/131
f 157/162/112 156/234/113 108/235/130 107/185/135
f 104/184/134 158/159/109 157/162/112 107/185/135
f 159/231/124 158/159/109 104/184/134 103/232/139
f 124/188/138 160/171/121 159/174/124 103/189/139
f 153/170/120 160/249/121 124/250/138 125/177/127
